Music_DawnsTheme:
	channel_count 4
	channel 1, Music_DawnsTheme_Ch1
	channel 2, Music_DawnsTheme_Ch2
	channel 3, Music_DawnsTheme_Ch3
	channel 4, Music_DawnsTheme_Ch4

Music_DawnsTheme_Ch1_sub_0:
	note A_, 4
	rest 2
	note A_, 1
	note A_, 1
	note A_, 2
	note A_, 4
	note A_, 2
	note G_, 2
	rest 1
	note G_, 2
	rest 1
	sound_ret
Music_DawnsTheme_Ch1_sub_1:
	note D_, 1
	note E_, 1
	note F_, 2
	note E_, 1
	rest 1
	note D_, 2
	note C_, 1
	rest 1
	octave 3
	note B_, 2
	sound_ret
Music_DawnsTheme_Ch1::
	tempo 148
	volume 7, 7
	duty_cycle 1
	pitch_offset 1
	vibrato 18, 1, 5
.loop
	note_type 12, 11, 2
	stereo_panning FALSE, TRUE
	octave 3
	note B_, 1
	octave 4
	note C_, 5
	note C_, 1
	note C_, 3
	note C_, 2
	octave 3
	note B_, 1
	octave 4
	volume_envelope 11, 3
	note C_, 3
	rest 4
	note C_, 4
	octave 3
	note A_, 2
	note F_, 2
	note D_, 2
	note G_, 4
	note B_, 4
	note C_, 4
	note D_, 2
	note E_, 6
	note F_, 2
	note F_, 3
	note F_, 1
	note C_, 2
	note F_, 2
	note C_, 4
	note C_, 2
	note D_, 4
	note E_, 4
	note F_, 2
	note G_, 6
	octave 4
	note C_, 2
	note E_, 1
	note D_, 1
	note C_, 2
	octave 3
	note G_, 2
	note F_, 2
	note E_, 2
	note G_, 4
	note B_, 4
	note E_, 4
	note F_, 2
	note G_, 6
	note F_, 2
	note F_, 3
	note F_, 1
	note F_, 2
	note F_, 2
	note C_, 4
	note C_, 1
	note D_, 3
	note G_, 1
	note A_, 3
	note A_, 1
	note B_, 3
	note B_, 1
	octave 4
	note C_, 1
	note D_, 1
	note E_, 1
	note E_, 2
	note C_, 1
	rest 1
	note C_, 1
	rest 1
	octave 3
	note A_, 1
	octave 4
	volume_envelope 11, 6
	note C_, 7
	volume_envelope 11, 3
	sound_call Music_DawnsTheme_Ch1_sub_1
	note A_, 1
	rest 1
	octave 4
	note D_, 2
	note C_, 1
	rest 1
	octave 3
	note B_, 2
	note A_, 1
	rest 1
	note A_, 1
	note A_, 1
	note F_, 1
	volume_envelope 11, 6
	note G_, 9
	rest 2
	volume_envelope 11, 1
	note A_, 1
	note A_, 1
	note A_, 1
	note B_, 1
	rest 8
	octave 4
	volume_envelope 11, 3
	note D_, 1
	note E_, 1
	note E_, 4
	note G_, 1
	rest 3
	note G_, 1
	note D_, 1
	rest 1
	note D_, 3
	sound_call Music_DawnsTheme_Ch1_sub_1
	note G#, 1
	rest 1
	octave 4
	note B_, 2
	note G#, 1
	rest 1
	note G_, 2
	note F#, 1
	volume_envelope 11, 6
	note G_, 13
	volume_envelope 11, 1
	note C_, 1
	note C_, 1
	note C_, 1
	note C_, 1
	note C_, 1
	rest 11
	volume_envelope 6, 3
	octave 3
	sound_call Music_DawnsTheme_Ch1_sub_0
	octave 4
	note C#, 2
	note E_, 4
	rest 2
	octave 3
	note G_, 2
	note F_, 4
	rest 2
	note F_, 1
	note F_, 1
	note F_, 3
	note F_, 3
	note F#, 2
	note G_, 3
	octave 4
	note E_, 3
	octave 3
	note G_, 1
	rest 1
	note G_, 3
	rest 3
	note G_, 2
	sound_call Music_DawnsTheme_Ch1_sub_0
	note B_, 2
	octave 4
	note C#, 4
	note C#, 4
	octave 3
	note A_, 1
	note F_, 1
	rest 1
	note A_, 1
	octave 4
	note C_, 3
	octave 3
	note B_, 1
	octave 4
	note C_, 1
	octave 3
	note G#, 1
	rest 1
	octave 4
	note C_, 1
	note F_, 2
	note F_, 2
	sound_loop 0, .loop
Music_DawnsTheme_Ch2_sub_0:
	note B_, 4
	octave 4
	note D_, 4
	octave 3
	note G_, 4
	note A_, 2
	note B_, 6
	octave 4
	note C_, 2
	note C_, 3
	note C_, 1
	octave 3
	sound_ret
Music_DawnsTheme_Ch2_sub_1:
	note G_, 1
	note A_, 1
	note A#, 2
	note A_, 1
	rest 1
	note G_, 2
	note F_, 1
	rest 1
	note E_, 2
	note C#, 1
	rest 1
	sound_ret
Music_DawnsTheme_Ch2::
	duty_cycle 3
	vibrato 8, 3, 6
.loop
	note_type 12, 12, 2
	stereo_panning TRUE, FALSE
	octave 4
	note F#, 1
	note G_, 5
	note G_, 1
	note G_, 3
	note G_, 2
	note F#, 1
	volume_envelope 12, 3
	note G_, 3
	rest 4
	note E_, 4
	note C_, 2
	octave 3
	note A_, 2
	note F_, 2
	sound_call Music_DawnsTheme_Ch2_sub_0
	note A_, 2
	octave 4
	note C_, 2
	octave 3
	note A_, 4
	note G_, 2
	note A_, 4
	note B_, 4
	octave 4
	note C_, 2
	note D_, 6
	note E_, 2
	note G_, 1
	note F_, 1
	note E_, 2
	note C_, 2
	octave 3
	note B_, 2
	note A_, 2
	sound_call Music_DawnsTheme_Ch2_sub_0
	note A#, 2
	note G#, 2
	note F_, 4
	note G_, 1
	note A_, 3
	note B_, 1
	octave 4
	note C_, 3
	note D_, 1
	note D#, 3
	note E_, 1
	note F_, 1
	note G_, 1
	note A_, 1
	note B_, 4
	note G_, 1
	rest 1
	note E_, 1
	volume_envelope 12, 6
	note G_, 7
	volume_envelope 12, 3
	sound_call Music_DawnsTheme_Ch2_sub_1
	note G_, 2
	note F_, 1
	rest 1
	note E_, 4
	note C_, 1
	rest 1
	octave 3
	note A_, 1
	octave 4
	volume_envelope 12, 6
	note C_, 9
	volume_envelope 12, 1
	rest 2
	note F_, 1
	note F_, 1
	note F_, 1
	note G_, 1
	rest 8
	note G_, 1
	note A_, 1
	volume_envelope 12, 3
	note B_, 4
	octave 5
	note D_, 1
	rest 3
	octave 4
	note B_, 1
	note G_, 1
	rest 1
	note G_, 3
	sound_call Music_DawnsTheme_Ch2_sub_1
	octave 5
	note E_, 2
	note C#, 1
	rest 1
	note C_, 2
	octave 4
	note B_, 1
	octave 5
	volume_envelope 12, 6
	note C_, 13
	octave 4
	volume_envelope 12, 1
	note G_, 1
	note G_, 1
	note G_, 1
	note G_, 1
	note G_, 1
	rest 9
	stereo_panning TRUE, TRUE
	volume_envelope 7, 3
	octave 2
	note D_, 1
	note E_, 1
	note F_, 2
	rest 1
	note F_, 2
	rest 1
	note F_, 2
	note F_, 4
	rest 2
	note D_, 2
	note E_, 2
	rest 1
	note E_, 2
	rest 1
	octave 3
	note E_, 2
	octave 2
	note E_, 1
	note A_, 1
	rest 1
	octave 3
	note C#, 3
	note E_, 2
	octave 2
	note D_, 2
	rest 1
	note D_, 2
	rest 1
	octave 3
	note D_, 2
	octave 2
	note G_, 1
	note F_, 2
	note D_, 1
	octave 1
	note B_, 2
	note B_, 2
	octave 2
	note C_, 2
	rest 1
	note C_, 2
	rest 1
	note C_, 2
	note C#, 1
	note E_, 2
	note A#, 3
	octave 3
	note C_, 2
	octave 2
	note F_, 2
	rest 1
	note F_, 2
	rest 1
	note F_, 2
	octave 1
	note B_, 4
	rest 2
	octave 2
	note C_, 2
	note E_, 2
	rest 1
	note E_, 2
	rest 1
	note E_, 2
	octave 1
	note A_, 1
	octave 2
	note C#, 1
	rest 1
	note F_, 1
	note G_, 2
	note A#, 2
	note D_, 2
	rest 1
	note D_, 2
	rest 1
	note D_, 2
	note F_, 1
	note G#, 2
	octave 3
	note C_, 3
	octave 2
	note G#, 2
	sound_loop 0, .loop
Music_DawnsTheme_Ch3_sub_0:
	note F_, 1
	note G_, 1
	rest 1
	note G#, 1
	note A_, 1
	rest 1
	note A_, 3
	note G_, 1
	note A_, 1
	sound_ret
Music_DawnsTheme_Ch3_sub_1:
	note C#, 3
	rest 1
	note C#, 2
	rest 1
	octave 2
	note A_, 1
	octave 3
	note C#, 1
	sound_ret
Music_DawnsTheme_Ch3::
.loop
	stereo_panning TRUE, TRUE
	note_type 12, 2, 8
	vibrato 0, 0, 0
	octave 3
	note G_, 1
	octave 2
	note G_, 1
	rest 4
	octave 3
	note G_, 1
	octave 2
	note G_, 1
	rest 2
	note G_, 1
	rest 1
	octave 3
	note F#, 1
	note G_, 3
	note F_, 4
	note F_, 2
	rest 1
	note F_, 1
	note C_, 2
	note D_, 1
	rest 1
	note F_, 2
	note D_, 2
	note C_, 4
	note D_, 2
	rest 1
	octave 2
	note A_, 1
	note G_, 2
	note A_, 1
	rest 1
	note B_, 1
	octave 3
	note C_, 1
	octave 2
	note B_, 2
	note F_, 4
	octave 3
	note F_, 2
	rest 1
	note F_, 1
	note C_, 2
	note D_, 1
	rest 1
	note F_, 2
	note D_, 1
	rest 1
	note C_, 4
	note D_, 2
	rest 1
	octave 2
	note A_, 1
	note G_, 1
	rest 1
	note A_, 2
	octave 3
	note C_, 1
	note D_, 1
	note C_, 1
	note C_, 1
	rest 2
	octave 2
	note F_, 2
	octave 3
	note F_, 4
	note A_, 2
	note G_, 2
	note F_, 1
	note F_, 1
	rest 1
	note F_, 1
	note C_, 4
	note C_, 2
	rest 1
	octave 2
	note A_, 1
	note G_, 2
	note A_, 1
	rest 1
	octave 3
	note C_, 2
	note C_, 2
	note F_, 4
	note A_, 2
	rest 1
	note F_, 1
	note C_, 2
	note F_, 1
	rest 1
	note G#, 2
	note D_, 1
	rest 1
	note C_, 1
	rest 3
	note C_, 2
	rest 1
	octave 2
	note A_, 1
	note G_, 1
	rest 1
	note G_, 3
	rest 1
	note G_, 2
	octave 3
	note C_, 2
	rest 2
	note C_, 3
	octave 2
	note G_, 1
	octave 3
	note C_, 1
	note G_, 1
	rest 1
	note C_, 2
	rest 1
	note C_, 2
	sound_call Music_DawnsTheme_Ch3_sub_1
	octave 2
	note A_, 2
	octave 3
	note C#, 1
	note D#, 1
	note E_, 1
	note G#, 1
	note A_, 1
	note D_, 2
	rest 2
	note D_, 2
	rest 1
	octave 2
	note A_, 1
	note A_, 1
	rest 1
	note A_, 2
	octave 3
	note A_, 2
	note F_, 2
	octave 2
	note G_, 2
	rest 1
	octave 3
	note G_, 1
	rest 1
	note G_, 1
	octave 2
	note G_, 2
	octave 3
	note G_, 1
	rest 1
	note G_, 2
	octave 2
	note G_, 1
	octave 3
	note G_, 1
	note D#, 2
	note C_, 1
	rest 2
	note C_, 1
	octave 4
	note C_, 1
	octave 3
	note C_, 1
	rest 1
	octave 2
	note B_, 1
	note G_, 2
	note A_, 2
	note B_, 1
	octave 3
	note C_, 1
	note E_, 1
	note G_, 1
	sound_call Music_DawnsTheme_Ch3_sub_1
	rest 1
	octave 2
	note A_, 2
	octave 3
	note C_, 1
	note C#, 1
	note E_, 1
	note G_, 1
	note D_, 3
	rest 1
	note D_, 2
	rest 1
	octave 2
	note A_, 1
	octave 3
	note D_, 1
	rest 1
	note D_, 2
	note C#, 1
	note D_, 1
	note F_, 1
	note A_, 1
	note F#, 1
	note G_, 1
	note G_, 1
	note G_, 1
	note G_, 1
	rest 9
	stereo_panning TRUE, FALSE
	note_type 12, 1, 6
	vibrato 22, 2, 3
	octave 5
	sound_call Music_DawnsTheme_Ch3_sub_0
	note G#, 2
	note G_, 2
	note F_, 1
	note D_, 1
	note A_, 1
	note G_, 1
	note F#, 1
	rest 1
	note G_, 9
	rest 2
	note C#, 1
	note E_, 1
	rest 1
	note E_, 1
	note F_, 1
	rest 1
	note F_, 3
	note E_, 1
	note F_, 1
	note E_, 2
	note D#, 1
	note D_, 2
	octave 4
	note B_, 1
	octave 5
	note A_, 1
	note G_, 1
	note F#, 1
	rest 1
	note G_, 9
	rest 2
	sound_call Music_DawnsTheme_Ch3_sub_0
	note G_, 2
	note D#, 1
	octave 4
	note B_, 1
	octave 5
	note D#, 1
	note G_, 1
	note A_, 1
	note B_, 1
	note A#, 1
	rest 1
	note B_, 5
	note F_, 4
	note G_, 4
	note C_, 1
	octave 4
	note A_, 1
	rest 1
	octave 5
	note C_, 1
	note F_, 3
	note E_, 1
	note D#, 1
	note C_, 1
	rest 1
	note D#, 1
	note G#, 2
	note A#, 2
	sound_loop 0, .loop

Music_DawnsTheme_Ch4_sub_0:
	drum_note 4, 4
	drum_note 3, 2
	drum_note 7, 2
	drum_note 4, 4
	drum_note 3, 2
	drum_note 7, 2
	drum_note 4, 4
	drum_note 3, 2
	drum_note 7, 1
	drum_note 4, 1
	sound_ret
Music_DawnsTheme_Ch4_sub_1:
	drum_note 4, 2
	drum_note 4, 1
	drum_note 4, 1
	drum_note 3, 2
	drum_note 7, 2
	drum_note 4, 2
	drum_note 4, 1
	drum_note 3, 3
	drum_note 7, 2
	sound_ret
Music_DawnsTheme_Ch4_sub_2:
	drum_note 4, 3
	drum_note 4, 1
	drum_note 3, 1
	drum_note 4, 2
	drum_note 4, 1
	drum_note 4, 4
	drum_note 3, 1
	drum_note 4, 2
	drum_note 4, 1
	drum_note 4, 3
	drum_note 4, 1
	drum_note 3, 1
	drum_note 4, 2
	sound_ret
Music_DawnsTheme_Ch4:
	toggle_noise 3
	drum_speed 12
.loop
	drum_note 3, 1
	drum_note 3, 1
	drum_note 4, 2
	drum_note 4, 2
	drum_note 3, 1
	drum_note 3, 1
	drum_note 4, 2
	drum_note 3, 1
	drum_note 4, 1
	drum_note 3, 2
	drum_note 3, 1
	drum_note 3, 1
	sound_call Music_DawnsTheme_Ch4_sub_0
	drum_note 4, 4
	drum_note 3, 2
	drum_note 7, 2
	sound_call Music_DawnsTheme_Ch4_sub_0
	drum_note 4, 2
	drum_note 3, 2
	drum_note 3, 1
	drum_note 3, 1
	drum_note 4, 1
	drum_note 3, 1
	sound_call Music_DawnsTheme_Ch4_sub_1
	drum_note 4, 4
	drum_note 3, 2
	drum_note 7, 1
	drum_note 4, 1
	drum_note 4, 4
	drum_note 3, 2
	drum_note 7, 2
	drum_note 4, 4
	drum_note 3, 2
	drum_note 7, 2
	drum_note 4, 4
	drum_note 3, 2
	drum_note 7, 2
	sound_call Music_DawnsTheme_Ch4_sub_1
	drum_note 4, 4
	drum_note 3, 2
	drum_note 7, 2
	drum_note 4, 3
	drum_note 4, 1
	drum_note 3, 2
	drum_note 7, 2
	drum_note 4, 4
	drum_note 3, 2
	drum_note 7, 1
	drum_note 4, 1
	drum_note 4, 4
	drum_note 3, 2
	drum_note 7, 2
	drum_note 4, 4
	drum_note 3, 2
	drum_note 7, 2
	drum_note 4, 4
	drum_note 3, 2
	drum_note 7, 2
	drum_note 4, 3
	drum_note 4, 2
	drum_note 3, 1
	drum_note 3, 2
	drum_note 4, 2
	drum_note 4, 2
	drum_note 3, 2
	drum_note 4, 1
	drum_note 3, 1
	drum_note 4, 3
	drum_note 4, 1
	drum_note 3, 1
	drum_note 4, 2
	drum_note 4, 1
	drum_note 4, 3
	drum_note 4, 1
	drum_note 3, 2
	drum_note 4, 2
	drum_note 4, 4
	drum_note 3, 2
	drum_note 7, 2
	drum_note 4, 4
	drum_note 4, 2
	drum_note 4, 1
	drum_note 4, 1
	drum_note 4, 4
	drum_note 3, 2
	drum_note 7, 2
	drum_note 4, 4
	drum_note 3, 2
	drum_note 7, 2
	drum_note 3, 1
	drum_note 3, 1
	drum_note 3, 1
	drum_note 3, 1
	drum_note 3, 2
	drum_note 4, 2
	drum_note 3, 1
	drum_note 3, 1
	drum_note 4, 1
	drum_note 4, 1
	drum_note 3, 1
	drum_note 3, 1
	drum_note 4, 1
	drum_note 4, 1
	sound_call Music_DawnsTheme_Ch4_sub_2
	drum_note 3, 1
	drum_note 4, 1
	drum_note 3, 3
	drum_note 3, 1
	drum_note 4, 2
	drum_note 4, 1
	drum_note 4, 3
	drum_note 4, 1
	drum_note 3, 1
	drum_note 4, 2
	drum_note 4, 1
	drum_note 4, 4
	drum_note 3, 1
	drum_note 4, 2
	drum_note 4, 1
	sound_call Music_DawnsTheme_Ch4_sub_2
	drum_note 4, 1
	drum_note 4, 4
	drum_note 3, 1
	drum_note 4, 2
	drum_note 4, 1
	drum_note 4, 3
	drum_note 4, 1
	drum_note 3, 1
	drum_note 4, 2
	drum_note 3, 1
	drum_note 4, 1
	drum_note 3, 1
	drum_note 4, 2
	drum_note 3, 1
	drum_note 4, 2
	drum_note 4, 1
	drum_note 4, 3
	drum_note 4, 1
	drum_note 3, 1
	drum_note 4, 2
	drum_note 4, 1
	drum_note 4, 4
	drum_note 3, 1
	drum_note 4, 2
	drum_note 4, 1
	sound_loop 0, .loop