Music_LookRival:
	channel_count 4
	channel 1, Music_LookRival_Ch1
	channel 2, Music_LookRival_Ch2
	channel 3, Music_LookRival_Ch3
    channel 4, Music_LookRival_Ch4

Music_LookRival_Ch1::
	tempo 139
	volume 7, 7
	duty_cycle 3
	vibrato 20, 2, 3
	stereo_panning TRUE, FALSE
	note_type 12, 12, 2
	octave 3
	note A_, 1
	note A_, 1
	note G_, 1
	rest 1
	note F_, 1
	rest 1
	note G_, 1
	note F_, 2
	octave 2
	duty_cycle 0
	note G_, 1
	octave 3
	note C_, 1
	octave 2
	note G_, 1
	octave 3
	note C_, 1
	note D_, 2
	octave 2
	note A_, 2
	note G_, 1
	note F_, 1
	note F#, 1
	note G_, 1
	note F_, 1
	note B_, 1
	octave 3
	note C_, 1
	octave 2
.loop
	duty_cycle 3
	note A_, 1
	rest 1
	volume_envelope 12, 5
	note A_, 2
	octave 3
	note C_, 2
	note A_, 2
	note G_, 2
	rest 1
	note F_, 2
	rest 1
	note D_, 1
	note F_, 1
	note G_, 3
	note D_, 2
	rest 1
	octave 2
	note B_, 8
	note A#, 1
	octave 3
	note C_, 1
	note D_, 4
	note D_, 4
	note C#, 1
	note D_, 1
	note D_, 2
	note D_, 2
	note D#, 2
	note E_, 4
	note E_, 4
	volume_envelope 12, 2
	note D#, 1
	note E_, 1
	note E_, 1
	note E_, 1
	note D#, 1
	note E_, 1
	note E_, 1
	note E_, 1
	volume_envelope 12, 5
	rest 2
	octave 2
	note A_, 2
	octave 3
	note C_, 2
	note A_, 2
	note G_, 2
	note A_, 1
	note B_, 1
	rest 2
	note G_, 2
	note F_, 2
	note E_, 1
	note D_, 3
	note F_, 1
	note G_, 7
	note G_, 1
	note A_, 1
	octave 4
	note C_, 6
	note D_, 1
	note E_, 1
	note C_, 6
	note D_, 1
	note E_, 1
	octave 3
	note B_, 4
	volume_envelope 12, 2
	note A#, 1
	note B_, 1
	note B_, 1
	note B_, 1
	note A#, 1
	note B_, 1
	note B_, 1
	note B_, 1
	note A#, 1
	note B_, 1
	note B_, 1
	note B_, 1
	volume_envelope 12, 6
	octave 4
	note D_, 3
	octave 3
	note A#, 1
	rest 2
	note F_, 2
	note E_, 1
	note F_, 1
	note E_, 1
	note F_, 2
	note A#, 1
	note A_, 1
	note G_, 1
	note A#, 3
	octave 4
	note C_, 1
	rest 2
	note E_, 2
	note D#, 1
	note E_, 3
	note D#, 1
	note E_, 3
	note E_, 3
	note C_, 1
	rest 2
	octave 3
	note A_, 6
	note B_, 1
	octave 4
	note E_, 3
	note D_, 1
	rest 1
	note C_, 1
	rest 1
	octave 3
	note A_, 1
	rest 1
	octave 4
	note C_, 1
	octave 3
	note A_, 9
	note A#, 6
	octave 4
	note C_, 1
	octave 3
	note A#, 1
	octave 4
	note C_, 8
	octave 3
	note B_, 6
	octave 4
	note C#, 1
	octave 3
	note B_, 1
	octave 4
	note D#, 8
	note F#, 3
	note D_, 1
	rest 2
	octave 3
	note B_, 1
	rest 1
	note G_, 4
	note B_, 1
	note A_, 1
	note G_, 1
	rest 1
	note A_, 12
	volume_envelope 12, 2
	octave 4
	note F_, 1
	note F_, 1
	note F_, 1
	rest 1
	octave 2
	sound_loop 0, .loop
Music_LookRival_Ch2::
	duty_cycle 1
	pitch_offset 1
	vibrato 18, 1, 5
	stereo_panning FALSE, TRUE
	note_type 12, 11, 2
	octave 4
	note D_, 1
	note D_, 1
	note C_, 1
	rest 1
	octave 3
	note B_, 1
	rest 1
	octave 4
	note C_, 1
	octave 3
	volume_envelope 12, 7
	note B_, 13
	volume_envelope 12, 5
	note G_, 1
	note G#, 1
	note A_, 1
	octave 4
	note C_, 1
.loop
	note D_, 1
	rest 1
	octave 3
	note D_, 2
	note F_, 2
	octave 4
	note C_, 2
	octave 3
	note B_, 2
	rest 1
	note A_, 2
	rest 1
	note G_, 1
	note A_, 1
	note B_, 3
	note G_, 2
	rest 1
	note D_, 8
	note D_, 1
	note E_, 1
	note F_, 4
	note F_, 4
	note E_, 1
	note F_, 1
	note F_, 2
	note G_, 2
	note G#, 2
	note A_, 4
	note A_, 4
	volume_envelope 12, 2
	note G#, 1
	note A_, 1
	note A_, 1
	note A_, 1
	note G#, 1
	note A_, 1
	note A_, 1
	note A_, 1
	volume_envelope 12, 5
	rest 2
	note D_, 2
	note F_, 2
	octave 4
	note C_, 2
	octave 3
	note B_, 2
	octave 4
	note C_, 1
	note D_, 1
	rest 2
	note C_, 2
	octave 3
	note B_, 2
	note A_, 1
	note G_, 3
	note A_, 1
	note B_, 7
	octave 4
	note C_, 1
	note D_, 1
	note E_, 6
	note F_, 1
	note G_, 1
	note E_, 6
	note F_, 1
	note G_, 1
	note E_, 4
	volume_envelope 12, 2
	note D#, 1
	note E_, 1
	note E_, 1
	note E_, 1
	note D#, 1
	note E_, 1
	note E_, 1
	note E_, 1
	note D#, 1
	note E_, 1
	note E_, 1
	note E_, 1
	volume_envelope 12, 6
	note F_, 3
	note D_, 1
	rest 2
	octave 3
	note A#, 10
	octave 4
	note E_, 3
	note F_, 1
	rest 2
	note G_, 10
	note G_, 3
	note E_, 1
	rest 2
	note C_, 6
	note E_, 1
	note G_, 3
	note F#, 1
	rest 1
	note E_, 1
	rest 1
	note D_, 1
	rest 1
	note E_, 1
	note D_, 9
	note D_, 6
	note F_, 1
	note D_, 1
	note E_, 8
	note E_, 6
	note A_, 1
	note E_, 1
	note F#, 8
	note B_, 3
	note F#, 1
	rest 2
	note E_, 1
	rest 1
	note D_, 4
	note F_, 1
	note E_, 1
	note D_, 1
	rest 1
	note E_, 12
	volume_envelope 12, 2
	note A_, 1
	note A_, 1
	note A_, 1
	rest 1
	volume_envelope 12, 5
	sound_loop 0, .loop
Music_LookRival_Ch3_sub_0:
	note D_, 3
	note D_, 1
	rest 2
	note D_, 2
	rest 2
	note C_, 1
	note D_, 1
	note A_, 1
	rest 1
	note F_, 2
	note G_, 3
	note G_, 1
	rest 2
	note G_, 2
	rest 2
	note D_, 1
	note G_, 1
	note F_, 1
	rest 1
	note E_, 2
	sound_ret
Music_LookRival_Ch3::
	note_type 12, 2, 8
	rest 16
	rest 8
.loop
	octave 3
	sound_call Music_LookRival_Ch3_sub_0
	note D_, 3
	note D_, 1
	rest 2
	note D_, 2
	rest 2
	note C_, 1
	note D_, 1
	note F_, 1
	rest 1
	note F_, 2
	note A_, 3
	note A_, 1
	rest 2
	note A_, 2
	rest 2
	note A_, 1
	note G#, 1
	note C#, 1
	rest 1
	note C#, 2
	sound_call Music_LookRival_Ch3_sub_0
	note C_, 3
	note C_, 1
	rest 2
	note C_, 2
	rest 2
	note C_, 1
	note G_, 1
	note C_, 1
	rest 1
	note D#, 2
	note F#, 3
	note F#, 1
	rest 2
	note E_, 1
	note F#, 1
	note E_, 1
	rest 1
	note F#, 1
	note F#, 1
	note B_, 1
	rest 1
	note F#, 2
	note G_, 2
	rest 1
	note G_, 1
	rest 2
	note D_, 1
	note F_, 1
	note G_, 2
	note F_, 1
	note G_, 1
	rest 1
	note G_, 1
	note F_, 1
	note D_, 1
	note C_, 2
	rest 1
	note C_, 1
	rest 2
	octave 4
	note C_, 1
	rest 1
	octave 3
	note A#, 1
	rest 1
	note G_, 1
	note E_, 1
	rest 1
	note C_, 3
	note F_, 2
	rest 1
	note F_, 1
	rest 2
	octave 4
	note C_, 1
	rest 1
	octave 3
	note A_, 1
	rest 1
	note F_, 1
	note C_, 1
	rest 1
	note F_, 3
	note D_, 1
	rest 1
	note D_, 1
	rest 1
	octave 4
	note C_, 1
	octave 3
	note D_, 1
	octave 4
	note C_, 1
	octave 3
	note A#, 1
	rest 1
	note A#, 1
	rest 1
	note A#, 1
	note A_, 1
	note D_, 1
	note A_, 1
	rest 1
	note G_, 2
	rest 1
	note G_, 1
	rest 2
	octave 4
	note D_, 1
	octave 3
	note G_, 1
	note G_, 2
	rest 1
	note G_, 1
	octave 4
	note C_, 1
	note D_, 1
	octave 3
	note G_, 2
	note F#, 2
	rest 1
	note F#, 1
	rest 2
	note D#, 1
	note F#, 1
	note F#, 2
	rest 1
	note F#, 1
	rest 2
	note F#, 2
	note E_, 2
	rest 1
	note E_, 1
	rest 2
	note E_, 2
	rest 2
	note C_, 1
	rest 1
	note E_, 1
	note F#, 1
	rest 2
	note E_, 2
	rest 1
	note E_, 1
	rest 2
	note E_, 2
	rest 2
	note E_, 1
	rest 1
	octave 4
	note C#, 1
	note C#, 1
	note C#, 1
	rest 1
	sound_loop 0, .loop
Music_LookRival_Ch4_sub_0:
	drum_note 4, 4
	drum_note 3, 3
	drum_note 4, 3
	drum_note 4, 2
	drum_note 3, 2
	drum_note 4, 2
	drum_note 4, 4
	drum_note 3, 3
	drum_note 4, 3
	drum_note 4, 2
	drum_note 3, 4
	drum_note 4, 4
	drum_note 3, 3
	drum_note 4, 3
	drum_note 4, 2
	drum_note 3, 2
	drum_note 4, 2
	sound_ret
Music_LookRival_Ch4::
	toggle_noise 3
	drum_speed 12
	drum_note 4, 2
	drum_note 4, 2
	drum_note 3, 2
	drum_note 3, 1
	drum_note 3, 1
	drum_note 4, 4
	drum_note 3, 3
	drum_note 4, 3
	drum_note 4, 2
	drum_note 3, 1
	drum_note 3, 1
	drum_note 4, 1
	drum_note 4, 1
.loop
	drum_note 4, 2
	drum_note 4, 2
	drum_note 3, 2
	drum_note 4, 2
	drum_note 4, 2
	drum_note 4, 1
	drum_note 3, 2
	drum_note 4, 1
	drum_note 3, 1
	drum_note 4, 1
	drum_note 4, 2
	drum_note 4, 2
	drum_note 3, 2
	drum_note 4, 2
	drum_note 3, 2
	drum_note 4, 1
	drum_note 3, 2
	drum_note 4, 1
	drum_note 3, 2
	drum_note 4, 2
	drum_note 4, 2
	drum_note 3, 2
	drum_note 4, 2
	drum_note 4, 2
	drum_note 4, 1
	drum_note 3, 2
	drum_note 4, 1
	drum_note 3, 1
	drum_note 4, 1
	drum_note 3, 2
	drum_note 4, 2
	drum_note 3, 2
	drum_note 4, 2
	drum_note 3, 1
	drum_note 3, 1
	drum_note 4, 2
	drum_note 3, 1
	drum_note 3, 1
	drum_note 4, 2
	drum_note 4, 2
	drum_note 4, 2
	drum_note 3, 2
	drum_note 4, 2
	drum_note 4, 2
	drum_note 4, 1
	drum_note 3, 2
	drum_note 4, 1
	drum_note 3, 1
	drum_note 4, 1
	drum_note 4, 2
	drum_note 4, 2
	drum_note 3, 2
	drum_note 4, 2
	drum_note 3, 2
	drum_note 4, 1
	drum_note 3, 2
	drum_note 4, 1
	drum_note 3, 2
	drum_note 4, 2
	drum_note 4, 2
	drum_note 3, 2
	drum_note 4, 2
	drum_note 4, 2
	drum_note 4, 1
	drum_note 3, 2
	drum_note 4, 1
	drum_note 3, 1
	drum_note 4, 1
	drum_note 3, 1
	drum_note 3, 1
	drum_note 4, 1
	drum_note 4, 1
	drum_note 3, 1
	drum_note 3, 1
	drum_note 4, 1
	drum_note 4, 1
	drum_note 3, 1
	drum_note 3, 1
	drum_note 4, 1
	drum_note 4, 1
	drum_note 3, 1
	drum_note 3, 1
	drum_note 3, 1
	drum_note 3, 1
	sound_call Music_LookRival_Ch4_sub_0
	drum_note 4, 1
	drum_note 4, 1
	drum_note 3, 2
	drum_note 4, 1
	drum_note 4, 1
	drum_note 3, 1
	drum_note 3, 2
	drum_note 4, 2
	drum_note 4, 1
	drum_note 3, 2
	drum_note 4, 2
	sound_call Music_LookRival_Ch4_sub_0
	drum_note 4, 4
	drum_note 3, 3
	drum_note 4, 3
	drum_note 4, 2
	drum_note 3, 1
	drum_note 3, 1
	drum_note 3, 1
	rest 1
	sound_loop 0, .loop