Music_OreburghCity:
	channel_count 4
	channel 1, Music_OreburghCity_Ch1
	channel 2, Music_OreburghCity_Ch2
	channel 3, Music_OreburghCity_Ch3
	channel 4, Music_OreburghCity_Ch4

Music_OreburghCity_Ch1_sub_0:
	octave 3
	note G_, 3
	note G_, 1
	note E_, 3
	note E_, 1
	note G_, 2
	note G_, 1
	note A#, 2
	note G_, 1
	note E_, 1
	note F_, 1
	octave 4
	note C_, 3
	note C_, 1
	octave 3
	note A_, 3
	note A_, 1
	note F_, 2
	note F_, 1
	note D_, 2
	note D_, 1
	octave 2
	note A#, 1
	sound_ret
Music_OreburghCity_Ch1_sub_1:
	octave 4
	note C_, 1
	octave 3
	note F#, 1
	note G_, 1
	octave 4
	note C_, 1
	octave 3
	sound_ret
Music_OreburghCity_Ch1::
	tempo 226
	duty_cycle 3
	vibrato 8, 1, 5
	stereo_panning TRUE, FALSE
.loop
	pitch_offset 0
	note_type 12, 11, 5
	sound_call Music_OreburghCity_Ch1_sub_0
	note B_, 1
	sound_call Music_OreburghCity_Ch1_sub_0
	octave 3
	note D_, 1
	note_type 12, 11, 2
	note C#, 1
	note D_, 1
	note F#, 1
	note D_, 2
	note A_, 1
	note F#, 1
	note D_, 1
	note F#, 1
	note G_, 1
	note B_, 1
	note G_, 2
	octave 4
	note D#, 1
	octave 3
	note B_, 1
	note G_, 1
	octave 2
	note B_, 1
	octave 3
	note C_, 1
	note E_, 1
	note C_, 2
	note G_, 1
	note E_, 1
	note C_, 1
	note C_, 1
	note C#, 1
	note F_, 1
	note C#, 2
	note G#, 1
	note B_, 1
	note C#, 1
	octave 4
	note D_, 3
	note D_, 3
	note G_, 4
	note G_, 3
	note G_, 3
	note E_, 2
	note C_, 2
	octave 3
	note G_, 1
	note E_, 2
	note A_, 1
	note A#, 1
	note A#, 1
	note A_, 1
	note A_, 1
	note G#, 1
	note G#, 1
	note G_, 1
	note G_, 1
	note_type 12, 11, 3
	note D#, 1
	note E_, 2
	note E_, 1
	octave 2
	note B_, 1
	octave 3
	note C_, 2
	note C_, 1
	note D_, 1
	note D#, 2
	note D#, 1
	octave 2
	note B_, 1
	octave 3
	note C_, 2
	note C_, 1
	note F#, 1
	note G_, 2
	note G_, 3
	note G_, 1
	note A_, 2
	note A#, 1
	note F#, 1
	note G_, 1
	note D#, 1
	note E_, 1
	note C_, 1
	note C#, 2
	note E_, 1
	octave 2
	note B_, 1
	octave 3
	note C_, 1
	octave 2
	note G#, 1
	note A_, 1
	note E_, 1
	note F_, 1
	octave 3
	note D#, 2
	note D#, 1
	note C_, 2
	note D#, 1
	note C_, 2
	note_type 12, 11, 2
	pitch_offset 2
	note D#, 1
	note E_, 2
	note D#, 1
	note E_, 1
	octave 2
	note B_, 1
	octave 3
	note C_, 1
	octave 2
	note G_, 1
	note F#, 1
	note G_, 1
	octave 3
	note C_, 1
	octave 2
	note F#, 1
	note G_, 1
	octave 3
	note C_, 1
	octave 2
	note F#, 1
	note G_, 1
	octave 3
	note F#, 1
	note G_, 2
	note F#, 1
	note G_, 1
	note B_, 1
	sound_call Music_OreburghCity_Ch1_sub_1
	note F#, 1
	note G_, 1
	sound_call Music_OreburghCity_Ch1_sub_1
	note G#, 1
	note A_, 1
	octave 4
	note C_, 1
	octave 3
	note G#, 1
	note A_, 1
	octave 4
	note C_, 1
	octave 3
	note G#, 1
	note A_, 1
	octave 4
	note C_, 1
	note C_, 1
	octave 3
	note E_, 1
	note F_, 1
	note A_, 1
	note C_, 1
	note E_, 1
	note F_, 2
	octave 2
	note A#, 1
	note A#, 2
	note A#, 1
	note A#, 2
	note A#, 1
	octave 3
	note D#, 2
	note D#, 1
	note D#, 2
	note D#, 1
	note D#, 1
	note D#, 1
	sound_loop 0, .loop
Music_OreburghCity_Ch2_sub_0:
	note C_, 2
	octave 4
	note A_, 3
	note G_, 3
	note C_, 2
	note D#, 2
	note D_, 2
	note C_, 1
	sound_ret
Music_OreburghCity_Ch2::
	duty_cycle 3
	vibrato 16, 3, 6
	stereo_panning FALSE, TRUE
.loop
	note_type 12, 12, 5
	octave 4
	note C_, 3
	note G_, 3
	note D_, 2
	note E_, 2
	note F_, 2
	note G_, 2
	octave 5
	sound_call Music_OreburghCity_Ch2_sub_0
	note D_, 3
	note C_, 3
	note G_, 3
	note D_, 2
	note E_, 2
	note G_, 2
	octave 5
	note D_, 2
	sound_call Music_OreburghCity_Ch2_sub_0
	note G#, 3
	note_type 12, 12, 2
	note G_, 3
	note G_, 3
	note F#, 4
	note F_, 2
	note F_, 4
	note E_, 3
	note E_, 3
	note E_, 4
	note F_, 2
	note F_, 4
	note G_, 3
	note G_, 3
	octave 5
	note C_, 4
	note D_, 3
	note C_, 3
	octave 4
	note A#, 2
	note A_, 2
	note G_, 1
	note C_, 2
	note D_, 1
	note E_, 1
	note E_, 1
	note D#, 1
	note D#, 1
	note D_, 1
	note D_, 1
	note C#, 1
	note C#, 1
	note_type 12, 12, 5
	note C_, 3
	octave 3
	note A_, 3
	octave 4
	note C_, 2
	note D_, 2
	note C_, 2
	note D#, 1
	note C_, 3
	note E_, 3
	note D#, 3
	note E_, 2
	note A#, 2
	note A_, 2
	note G#, 1
	note A_, 3
	note E_, 3
	octave 3
	note A_, 3
	octave 4
	note C_, 2
	note D#, 2
	note C_, 2
	note D_, 1
	note C_, 3
	note_type 12, 12, 3
	note C_, 2
	note C_, 2
	note D_, 1
	note C_, 3
	octave 3
	note G_, 1
	octave 4
	note C_, 1
	note D_, 1
	note C_, 5
	note E_, 2
	note E_, 2
	note D#, 1
	note E_, 3
	octave 3
	note G_, 1
	octave 4
	note E_, 1
	note F_, 1
	note E_, 2
	note C_, 1
	octave 3
	note G_, 2
	note A_, 2
	note A_, 1
	octave 4
	note C_, 1
	note D_, 1
	note C_, 3
	note D#, 1
	note C_, 1
	note D_, 1
	note C_, 2
	note C_, 1
	note E_, 1
	note F_, 1
	note G_, 2
	note G_, 2
	octave 3
	note G_, 4
	octave 4
	note G_, 1
	note G_, 2
	octave 3
	note G_, 2
	note G_, 1
	note G_, 2
	sound_loop 0, .loop
Music_OreburghCity_Ch3_sub_0:
	note C_, 1
	note E_, 1
	note E_, 1
	note G_, 1
	note G_, 1
	note A#, 1
	note G_, 1
	note E_, 1
	note E_, 1
	note G_, 1
	note G_, 1
	note A#, 1
	note A#, 1
	octave 3
	note D_, 1
	octave 2
	note A#, 1
	note F_, 1
	note F_, 1
	note A_, 1
	note A_, 1
	octave 3
	note C_, 1
	note C_, 1
	note E_, 1
	note C_, 1
	octave 1
	note A#, 1
	note A#, 1
	octave 2
	note D_, 1
	note D_, 1
	note F_, 1
	note F_, 1
	note G#, 1
	note F_, 1
	sound_ret
Music_OreburghCity_Ch3_sub_1:
	note C_, 1
	rest 2
	note C_, 1
	note C_, 1
	rest 2
	note C_, 1
	rest 1
	note C_, 1
	note C_, 1
	rest 5
	sound_ret
Music_OreburghCity_Ch3::
	note_type 12, 1, 4
.loop
	octave 2
	note C_, 1
	sound_call Music_OreburghCity_Ch3_sub_0
	note C_, 1
	sound_call Music_OreburghCity_Ch3_sub_0
	note D_, 1
	rest 2
	note D_, 1
	rest 2
	note D_, 1
	rest 3
	note G_, 1
	rest 1
	note G_, 1
	rest 3
	note C_, 1
	rest 2
	note C_, 1
	rest 2
	note C_, 1
	rest 3
	note C#, 1
	rest 1
	note C#, 1
	rest 4
	note D_, 1
	rest 1
	note D_, 1
	note D_, 1
	rest 3
	note G_, 1
	rest 1
	note G_, 1
	note G_, 1
	rest 5
	note C_, 1
	rest 1
	note C_, 1
	note C_, 1
	rest 4
	note G_, 1
	rest 2
	note A#, 1
	rest 3
	note F_, 1
	note F_, 1
	note A_, 1
	note A_, 1
	octave 3
	note C_, 1
	note C_, 1
	note D_, 1
	note C_, 1
	octave 2
	note F#, 1
	note F#, 1
	note A_, 1
	note A_, 1
	octave 3
	note C_, 1
	note C_, 1
	note D_, 1
	note C_, 1
	octave 2
	note G_, 1
	note G_, 1
	octave 3
	note C_, 1
	note C_, 1
	note E_, 1
	note E_, 1
	note G_, 1
	note E_, 1
	octave 2
	note A_, 1
	note A_, 1
	octave 3
	note C#, 1
	note C#, 1
	note G_, 1
	note G_, 1
	note A#, 1
	note G_, 1
	octave 2
	note D_, 1
	note D_, 1
	note F_, 1
	note F_, 1
	note A_, 1
	note A_, 1
	octave 3
	note C_, 1
	octave 2
	note A_, 1
	note F_, 1
	note F_, 1
	note A_, 1
	note A_, 1
	octave 3
	note C_, 1
	note C_, 1
	note D#, 1
	note C_, 1
	rest 1
	octave 2
	sound_call Music_OreburghCity_Ch3_sub_1
	sound_call Music_OreburghCity_Ch3_sub_1
	note F_, 1
	rest 2
	note F_, 1
	note F_, 1
	rest 2
	note F_, 1
	rest 1
	note F_, 1
	note F_, 1
	rest 5
	note C_, 1
	rest 2
	note C_, 1
	note C_, 1
	rest 2
	note G_, 1
	rest 1
	note G_, 1
	note G_, 1
	rest 4
	sound_loop 0, .loop
Music_OreburghCity_Ch4_sub_0:
	drum_note 2, 2
	drum_note 8, 2
	drum_note 2, 2
	drum_note 8, 2
	drum_note 2, 2
	drum_note 8, 2
	drum_note 2, 2
	drum_note 8, 2
	sound_ret
Music_OreburghCity_Ch4_sub_1:
	drum_note 7, 2
	drum_note 2, 1
	drum_note 7, 2
	drum_note 2, 1
	drum_note 7, 2
	drum_note 2, 2
	drum_note 8, 2
	drum_note 7, 2
	drum_note 2, 2
	sound_ret
Music_OreburghCity_Ch4_sub_2:
	drum_note 2, 2
	drum_note 8, 1
	drum_note 7, 1
	drum_note 2, 2
	drum_note 7, 2
	drum_note 2, 2
	drum_note 8, 1
	drum_note 7, 1
	drum_note 2, 2
	drum_note 7, 2
	sound_ret
Music_OreburghCity_Ch4_sub_3:
	drum_note 2, 2
	drum_note 7, 2
	drum_note 2, 2
	drum_note 7, 2
	drum_note 8, 2
	drum_note 7, 1
	drum_note 8, 2
	drum_note 7, 1
	drum_note 8, 2
	sound_ret
Music_OreburghCity_Ch4::
	toggle_noise 3
	drum_speed 12
.loop
	sound_call Music_OreburghCity_Ch4_sub_0
	sound_call Music_OreburghCity_Ch4_sub_0
	sound_call Music_OreburghCity_Ch4_sub_0
	sound_call Music_OreburghCity_Ch4_sub_0
	sound_call Music_OreburghCity_Ch4_sub_1
	sound_call Music_OreburghCity_Ch4_sub_1
	drum_note 7, 2
	drum_note 2, 1
	drum_note 7, 2
	drum_note 2, 1
	drum_note 7, 2
	drum_note 8, 2
	drum_note 8, 1
	drum_note 8, 1
	drum_note 8, 1
	drum_note 8, 2
	drum_note 8, 1
	drum_note 2, 2
	drum_note 7, 2
	drum_note 2, 2
	drum_note 7, 2
	drum_note 8, 1
	drum_note 8, 1
	drum_note 8, 1
	drum_note 8, 1
	drum_note 8, 1
	drum_note 8, 1
	drum_note 8, 1
	drum_note 8, 1
	sound_call Music_OreburghCity_Ch4_sub_2
	sound_call Music_OreburghCity_Ch4_sub_2
	drum_note 2, 2
	drum_note 7, 2
	drum_note 2, 2
	drum_note 7, 2
	drum_note 2, 2
	drum_note 7, 2
	drum_note 7, 1
	drum_note 2, 2
	drum_note 2, 1
	sound_call Music_OreburghCity_Ch4_sub_3
	sound_call Music_OreburghCity_Ch4_sub_3
	drum_note 2, 2
	drum_note 7, 2
	drum_note 2, 2
	drum_note 7, 2
	drum_note 2, 2
	drum_note 7, 1
	drum_note 2, 2
	drum_note 2, 1
	drum_note 7, 2
	drum_note 2, 2
	drum_note 7, 2
	drum_note 2, 2
	drum_note 7, 2
	drum_note 7, 1
	drum_note 7, 1
	drum_note 2, 1
	drum_note 7, 2
	drum_note 2, 1
	drum_note 7, 1
	drum_note 7, 1
	sound_loop 0, .loop