Music_SandgemTown:
	channel_count 4
	channel 1, Music_SandgemTown_Ch1
	channel 2, Music_SandgemTown_Ch2
	channel 3, Music_SandgemTown_Ch3
	channel 4, Music_SandgemTown_Ch4

Music_SandgemTown_Ch1:
	volume 10, 10
	duty_cycle 2
	note_type 12, 10, 6
	tempo 82
;Bar 1
	octave 3
	volume_envelope 12, 2
	note A_, 4
	volume_envelope 8, 2
	note A_, 4
	volume_envelope 12, 2
	note F_, 4
	volume_envelope 8, 2
	note F_, 4
;Bar 2
	volume_envelope 12, 2
	note G_, 4
	volume_envelope 8, 2
	note G_, 4
	volume_envelope 12, 2
	note F_, 4
	volume_envelope 8, 2
	note F_, 4
;Bar 3
	volume_envelope 12, 2
	note E_, 4
	volume_envelope 8, 2
	note E_, 4
	volume_envelope 12, 2
	note C_, 4
	volume_envelope 8, 2
	note C_, 4
;Bar 4
	volume_envelope 12, 2
	note C#, 4
	volume_envelope 8, 2
	note C#, 4
	volume_envelope 12, 2
	note D#, 4
	volume_envelope 8, 2
	note D#, 4
;Bar 5
	.loop
	octave 3
	volume_envelope 15, 1
	note B_, 4
	volume_envelope 8, 1
	note B_, 4
	note B_, 4
	volume_envelope 15, 1
	note G#, 4
;Bar 6
	volume_envelope 8, 1
	note G#, 4
	note G#, 4
	note G#, 4
	note G#, 4
;Bar 7
	volume_envelope 15, 1
	note G#, 4
	volume_envelope 8, 1
	note G#, 4
	note G#, 4
	volume_envelope 15, 1
	note G#, 4
;Bar 8
	volume_envelope 8, 1
	note G#, 4
	volume_envelope 15, 1
	note E_, 4
	note E_, 4
	note G#, 4
;Bar 9
	note A_, 4
	volume_envelope 8, 1
	note A_, 4
	note A_, 4
	volume_envelope 15, 1
	note F#, 4
;Bar 10
	volume_envelope 8, 1
	note F#, 4
	note F#, 4
	note F#, 4
	note F#, 4
;Bar 11
	volume_envelope 12, 4
	octave 4
	note G#, 4
	note F#, 4
	note F_, 2
	note F#, 2
	note C#, 2
	octave 3
	note A_, 10
;Bar 12
	note A_, 8
;Bar 13
	octave 4
	volume_envelope 15, 1
	note C#, 4
	volume_envelope 8, 1
	note C#, 4
	note C#, 4
	note C#, 4
;Bar 14
	octave 3
	volume_envelope 15, 1
	note B_, 4
	volume_envelope 8, 1
	note B_, 4
	note B_, 4
	note B_, 4
;Bar 15
	volume_envelope 15, 1
	note A_, 4
	volume_envelope 8, 1
	note A_, 4
	note A_, 4
	note A_, 4
;Bar 16
	volume_envelope 15, 1
	note G#, 4
	volume_envelope 8, 1
	note G#, 4
	note G#, 4
	note G#, 4
;Bar 17
	volume_envelope 11, 5
	note E_, 12
	note D_, 12
;Bar 18
	octave 2
	note A_, 8
;Bar 19
	note B_, 12
	octave 3
	note D_, 8
;Bar 20
	octave 2
	note B_, 4
	octave 3
	note G#, 4
	note B_, 4
;Bar 21
	volume_envelope 15, 1
	note B_, 4
	volume_envelope 8, 1
	note B_, 4
	note B_, 4
	volume_envelope 15, 1
	note G#, 4
;Bar 22
	volume_envelope 8, 1
	note G#, 4
	note G#, 4
	note G#, 4
	note G#, 4
;Bar 23
	volume_envelope 15, 1
	note G#, 4
	volume_envelope 8, 1
	note G#, 4
	note G#, 4
	volume_envelope 15, 1
	note G#, 4
;Bar 24
	volume_envelope 8, 1
	note G#, 4
	volume_envelope 15, 1
	note E_, 4
	note E_, 4
	note G#, 4
;Bar 25
	note A_, 4
	volume_envelope 8, 1
	note A_, 4
	note A_, 4
	volume_envelope 15, 1
	note F#, 4
;Bar 26
	volume_envelope 8, 1
	note F#, 4
	note F#, 4
	note F#, 4
	note F#, 4
;Bar 27
	volume_envelope 12, 4
	octave 4
	note G#, 4
	note F#, 4
	note F_, 2
	note F#, 2
	note C#, 2
	octave 3
	note A_, 10
;Bar 28
	note A_, 8
;Bar 29
	octave 4
	volume_envelope 15, 1
	note C#, 4
	volume_envelope 8, 1
	note C#, 4
	note C#, 4
	note C#, 4
;Bar 30
	octave 3
	volume_envelope 15, 1
	note B_, 4
	volume_envelope 8, 1
	note B_, 4
	note B_, 4
	note B_, 4
;Bar 31
	volume_envelope 15, 1
	note A_, 4
	volume_envelope 8, 1
	note A_, 4
	note A_, 4
	note A_, 4
;Bar 32
	volume_envelope 15, 1
	note G#, 4
	volume_envelope 8, 1
	note G#, 4
	note G#, 4
	note G#, 4
;Bar 33
	volume_envelope 11, 5
	note E_, 12
	note D_, 12
;Bar 34
	octave 2
	note A_, 8
;Bar 35
	note B_, 12
	octave 3
	note D_, 8
;Bar 36
	octave 2
	note B_, 4
	octave 3
	note G#, 4
	note B_, 4
;Bar 37
	volume_envelope 12, 2
	note A_, 4
	volume_envelope 10, 2
	note A_, 4
	volume_envelope 12, 2
	note E_, 4
	volume_envelope 10, 2
	note E_, 4
;Bar 38
	volume_envelope 12, 2
	note C_, 4
	volume_envelope 10, 2
	note C_, 4
	octave 4
	volume_envelope 12, 2
	note C_, 4
	volume_envelope 10, 2
	note C_, 4
;Bar 39
	octave 3
	volume_envelope 12, 2
	note B_, 4
	volume_envelope 10, 2
	note B_, 4
	volume_envelope 12, 2
	note G#, 4
	volume_envelope 10, 2
	note G#, 4
;Bar 40
	volume_envelope 12, 2
	note D_, 4
	volume_envelope 10, 2
	note D_, 4
	volume_envelope 12, 2
	note G#, 4
	volume_envelope 10, 2
	note G#, 4
;Bar 41
	volume_envelope 12, 2
	note E_, 4
	volume_envelope 10, 2
	note E_, 4
	volume_envelope 12, 2
	note C#, 4
	volume_envelope 10, 2
	note C#, 4
;Bar 42
	octave 2
	volume_envelope 12, 2
	note B_, 4
	volume_envelope 10, 2
	note B_, 4
	octave 4
	volume_envelope 12, 2
	note D#, 4
	volume_envelope 10, 2
	note D#, 4
;Bar 43
	octave 3
	volume_envelope 12, 2
	note B_, 4
	volume_envelope 10, 2
	note B_, 4
	volume_envelope 12, 2
	note D#, 4
	volume_envelope 10, 2
	note D#, 4
;Bar 44
	volume_envelope 12, 2
	note B_, 4
	volume_envelope 10, 2
	note B_, 4
	volume_envelope 12, 2
	note D_, 4
	volume_envelope 10, 2
	note D_, 4
;Bar 45
	volume_envelope 12, 2
	note A_, 4
	volume_envelope 10, 2
	note A_, 4
	volume_envelope 12, 2
	note E_, 4
	volume_envelope 10, 2
	note E_, 4
;Bar 46
	volume_envelope 12, 2
	note C_, 4
	volume_envelope 10, 2
	note C_, 4
	octave 4
	volume_envelope 12, 2
	note C_, 4
	volume_envelope 10, 2
	note C_, 4
;Bar 47
	octave 3
	volume_envelope 12, 2
	note B_, 4
	volume_envelope 10, 2
	note B_, 4
	octave 4
	volume_envelope 12, 2
	note D_, 4
	volume_envelope 10, 2
	note D_, 4
;Bar 48
	volume_envelope 12, 2
	note C#, 4
	volume_envelope 10, 2
	note C#, 4
	octave 3
	volume_envelope 12, 2
	note G#, 4
	volume_envelope 10, 2
	note G#, 4
;Bar 49
	volume_envelope 12, 2
	note A_, 4
	volume_envelope 10, 2
	note A_, 4
	volume_envelope 12, 2
	note G#, 4
	volume_envelope 10, 2
	note G#, 4
;Bar 50
	volume_envelope 12, 2
	note E_, 4
	volume_envelope 10, 2
	note E_, 4
	volume_envelope 12, 2
	note F#, 4
	volume_envelope 10, 2
	note F#, 4
;Bar 51
	volume_envelope 12, 2
	note E_, 4
	volume_envelope 10, 2
	note E_, 4
	volume_envelope 12, 2
	note C_, 4
	volume_envelope 10, 2
	note C_, 4
;Bar 52
	octave 2
	volume_envelope 12, 5
	note B_, 16
	sound_loop 0, .loop


Music_SandgemTown_Ch2:
	volume 7, 7
	duty_cycle 2
	note_type 12, 10, 7
;Bar 1
	octave 4
	volume_envelope 12, 2
	note E_, 4
	volume_envelope 8, 2
	note E_, 4
	volume_envelope 12, 2
	note C_, 4
	volume_envelope 8, 2
	note C_, 4
;Bar 2
	volume_envelope 12, 2
	note D_, 4
	volume_envelope 8, 2
	note D_, 4
	volume_envelope 12, 2
	note C_, 4
	volume_envelope 8, 2
	note C_, 4
;Bar 3
	octave 3
	volume_envelope 12, 2
	note B_, 4
	volume_envelope 8, 2
	note B_, 4
	volume_envelope 12, 2
	note G_, 4
	volume_envelope 8, 2
	note G_, 4
;Bar 4
	volume_envelope 12, 2
	note A_, 4
	volume_envelope 8, 2
	note A_, 4
	volume_envelope 12, 2
	note B_, 4
	volume_envelope 8, 2
	note B_, 4
;Bar 5
	.loop
	volume_envelope 13, 5
	octave 4
	note F_, 1
	note F#, 11
	note E_, 4
;Bar 6
	note E_, 16
;Bar 7
	note D#, 4
	note D#, 8
	note E_, 8
;Bar 8
	note C#, 4
	note D#, 4
	note E_, 4
;Bar 9
	note G#, 12
	note A_, 4
;Bar 10
	note C#, 16
;Bar 11
		volume_envelope 12, 4
	note B_, 4
	note A_, 4
	note G#, 2
	note A_, 2
	note F#, 2
	note C#, 10
;Bar 12
	note C#, 8
;Bar 13
	volume_envelope 13, 5
	note G_, 1
	note G#, 11
	note F#, 2
	rest 2
;Bar 14
	note F#, 12
	note E_, 2
	rest 1
	note D#, 1
;Bar 15
	note E_, 12
	note F#, 2
	note E_, 2
;Bar 16
	note D#, 2
	rest 2
	note C#, 2
	rest 2
	octave 3
	note B_, 2
	octave 4
	note C#, 6
;Bar 17
	volume_envelope 12, 6
	octave 1
	note D_, 12
	note D_, 8
;Bar 18           - OCTAVE ERROR START HERE
	octave 2
	note D_, 4
	octave 1
	note D_, 8
;Bar 19
	octave 1 
	note B_, 8
	octave 1
	note B_, 4
	note D_, 8
;Bar 20
	octave 2
	note D_, 4
	octave 1
	note D#, 4
	octave 2
	note D#, 4
;Bar 21            - OCTAVE ERROR END HERE
	octave 4
	volume_envelope 13, 5
	note F_, 1
	note F#, 11
	note G#, 4
;Bar 22
	note E_, 2
	note D#, 2
	note E_, 12
;Bar 23
	note D#, 4
	note D#, 8
	note E_, 8
;Bar 24
	note C#, 4
	note D#, 4
	note E_, 4
;Bar 25
	note G#, 12
	note A_, 4
;Bar 26
	note C#, 16
;Bar 27
	volume_envelope 12, 4
	note B_, 4
	note A_, 4
	note G#, 2
	note A_, 2
	note F#, 2
	note C#, 10
;Bar 28
	note C#, 8
;Bar 29
	volume_envelope 13, 5
	note G_, 1
	note G#, 11
	note B_, 2
	rest 2
;Bar 30
	note F#, 12
	note E_, 2
	rest 1
	note D#, 1
;Bar 31
	note E_, 12
	note F#, 2
	note E_, 2
;Bar 32
	note D#, 2
	rest 2
	note C#, 2
	rest 2
	octave 3
	note B_, 2
	octave 4
	note C#, 6
;Bar 33
	volume_envelope 12, 6
	octave 1
	note D_, 12
	note D_, 8
;Bar 34
	octave 2
	note D_, 4
	octave 1
	note D_, 8
;Bar 35
	octave 1 
	note B_, 8
	octave 1
	note B_, 4
	note D_, 8
;Bar 36
	octave 2
	note D_, 4
	octave 1
	note D#, 4
	octave 4
	note B_, 2
	octave 5
	note C_, 2
;Bar 37
	volume_envelope 13, 5
	note C#, 6
	octave 4
	note A_, 2
	rest 4
	note E_, 16
;Bar 38
	octave 5
	note C#, 2
	note D#, 2
;Bar 39
	octave 4
	note B_, 10
	note D#, 2
	rest 2
	note E_, 2
;Bar 40
	note B_, 12
	note A_, 2
	note G#, 2
;Bar 41
	note A_, 6
	note E_, 2
	rest 4
	note C#, 4
;Bar 42
	note D#, 6
	octave 3
	note B_, 2
	rest 4
	octave 5
	note C#, 2
	note D#, 2
;Bar 43
	octave 4
	note B_, 10
	note D#, 2
	rest 2
	note E_, 2
;Bar 44
	note B_, 12
	note A_, 2
	note B_, 2
;Bar 45
	octave 5
	note C#, 6
	octave 4
	note A_, 2
	rest 2
	note E_, 2
	octave 5
	note E_, 7
;Bar 46
	note F_, 1
	note F#, 4
	note D#, 4
	note C#, 4
;Bar 47
	octave 4
	note B_, 6
	note G#, 2
	rest 4
	octave 5
	note D_, 4
;Bar 48
	note C#, 8
	rest 4
	octave 4
	note A_, 2
	note G#, 2
;Bar 49
	note A_, 6
	note E_, 6
	note C#, 4
;Bar 50
	octave 3
	note B_, 6
	octave 4
	note F#, 6
	note D#, 4
;Bar 51
	volume_envelope 12, 0
	note E_, 8
;Bar 52
	volume_envelope 12, 6
	note E_, 16
	octave 3
	note B_, 8
	sound_loop 0, .loop

Music_SandgemTown_Ch3:
	note_type 12, 1, 5
;Bar 1
	octave 3
	note C_, 8
	octave 2
	note A_, 8
;Bar 2
	octave 3
	note C_, 6
	note F_, 6
	note D_, 4
;Bar 3
	note C_, 4
	octave 2
	note C_, 4
	octave 3
	note C_, 2
	note D_, 2
	note C_, 4
;Bar 4
	octave 2
	note B_, 4
	octave 1
	note B_, 4
	note B_, 4
	octave 2
	note D#, 4
;Bar 5
	.loop
	octave 2
	note E_, 4
	octave 3
	note E_, 4
	rest 4
	octave 2
	note E_, 2
	note E_, 2
;Bar 6
	note E_, 2
	rest 2
	note E_, 2
	rest 2
	octave 3
	note E_, 4
	octave 2
	note B_, 4
;Bar 7
	note E_, 4
	octave 3
	note E_, 4
	rest 4
	octave 2
	note E_, 2
	note E_, 2
;Bar 8
	note E_, 2
	rest 2
	note E_, 2
	rest 2
	octave 3
	note E_, 4
	octave 2
	note B_, 4
;Bar 9
	note F#, 4
	octave 3
	note F#, 4
	rest 4
	octave 2
	note F#, 2
	note F#, 2
;Bar 10
	note F#, 2
	rest 2
	note F#, 2
	rest 2
	octave 3
	note F#, 4
	note C#, 4
;Bar 11
	octave 2
	note F#, 4
	octave 3
	note F#, 4
	rest 4
	octave 2
	note F#, 2
	note F#, 2
;Bar 12
	note F#, 2
	rest 2
	note F#, 4
	note G#, 4
	note A_, 4
;Bar 13
	note B_, 4
	octave 3
	note B_, 4
	rest 4
	octave 2
	note B_, 2
	note B_, 2
;Bar 14
	note B_, 2
	rest 2
	note B_, 2
	rest 2
	octave 3
	note B_, 4
	note F#, 4
;Bar 15
	octave 2
	note B_, 4
	octave 3
	note B_, 4
	rest 4
	octave 2
	note B_, 2
	note B_, 2
;Bar 16
	note B_, 2
	rest 2
	note B_, 2
	rest 2
	octave 3
	note B_, 4
	note F#, 4
;Bar 17
	note_type 12, 1, 4
	vibrato 12, 2, 3
	octave 4
	note B_, 12
	octave 5
	note D_, 8
;Bar 18
	note C_, 4
	octave 4
	note B_, 4
	note A_, 4
;Bar 19
	note G_, 4
	note F#, 4
	note E_, 4
	note F#, 8
;Bar 20
	note A_, 4
	rest 8
;Bar 21
	note_type 12, 1, 5
	vibrato 0, 0, 0
	octave 2
	note E_, 4
	octave 3
	note E_, 4
	rest 4
	octave 2
	note E_, 2
	note E_, 2
;Bar 22
	note E_, 2
	rest 2
	note E_, 2
	rest 2
	octave 3
	note E_, 4
	octave 2
	note B_, 4
;Bar 23
	note E_, 4
	octave 3
	note E_, 4
	rest 4
	octave 2
	note E_, 2
	note E_, 2
;Bar 24
	note E_, 2
	rest 2
	note E_, 2
	rest 2
	octave 3
	note E_, 4
	octave 2
	note B_, 4
;Bar 25
	note F#, 4
	octave 3
	note F#, 4
	rest 4
	octave 2
	note F#, 2
	note F#, 2
;Bar 26
	note F#, 2
	rest 2
	note F#, 2
	rest 2
	octave 3
	note F#, 4
	note C#, 4
;Bar 27
	octave 2
	note F#, 4
	octave 3
	note F#, 4
	rest 4
	octave 2
	note F#, 2
	note F#, 2
;Bar 28
	note F#, 2
	rest 2
	note F#, 4
	note G#, 4
	note A_, 4
;Bar 29
	note B_, 4
	octave 3
	note B_, 4
	rest 4
	octave 2
	note B_, 2
	note B_, 2
;Bar 30
	note B_, 2
	rest 2
	note B_, 2
	rest 2
	octave 3
	note B_, 4
	note F#, 4
;Bar 31
	octave 2
	note B_, 4
	octave 3
	note B_, 4
	rest 4
	octave 2
	note B_, 2
	note B_, 2
;Bar 32
	note B_, 2
	rest 2
	note B_, 2
	rest 2
	octave 3
	note B_, 4
	note F#, 4
;Bar 33
	note_type 12, 1, 4
	vibrato 12, 2, 3
	octave 4
	note B_, 12
	octave 5
	note D_, 8
;Bar 34
	note C_, 4
	octave 4
	note B_, 4
	note A_, 4
;Bar 35
	note G_, 4
	note F#, 4
	note E_, 4
	note F#, 8
;Bar 36
	note A_, 4
	rest 4
	note_type 12, 1, 5
	vibrato 0, 0, 0
	octave 2
	note D#, 4
;Bar 37
	note A_, 5
	rest 1
	note A_, 2
	rest 4
	note E_, 2
	rest 2
;Bar 38
	note A_, 4
	rest 2
	note A_, 2
	rest 4
	note B_, 2
	octave 3
	note C#, 2
;Bar 39
	octave 2
	note G#, 5
	rest 1
	note G#, 2
	rest 2
	note D#, 4
	rest 2
;Bar 40
	note B_, 2
	note G#, 2
	rest 2
	octave 3
	note D_, 2
	rest 2
	octave 2
	note B_, 2
	note G#, 2
	note E_, 2
;Bar 41
	note F#, 4
	rest 2
	note F#, 2
	rest 4
	note C#, 4
;Bar 42
	note F#, 4
	rest 4
	note D#, 2
	note F#, 2
	note B_, 4
;Bar 43
	note E_, 4
	rest 2
	note E_, 2
	rest 2
	octave 3
	note E_, 2
	rest 4
;Bar 44
	octave 2
	note G#, 2
	note B_, 2
	rest 2
	octave 3
	note D_, 4
	rest 2
	note C#, 2
	octave 2
	note G#, 2
;Bar 45
	note A_, 5
	rest 1
	note A_, 2
	rest 4
	note E_, 2
	rest 2
;Bar 46
	note A_, 4
	rest 2
	note A_, 2
	rest 4
	note B_, 2
	octave 3
	note C#, 2
;Bar 47
	octave 2
	note G#, 4
	rest 2
	note G#, 2
	rest 2
	note D#, 4
	rest 2
;Bar 48
	note B_, 2
	note G#, 2
	rest 2
	octave 3
	note D_, 2
	rest 2
	octave 2
	note B_, 2
	note G#, 2
	note E_, 2
;Bar 49
	note F#, 4
	rest 2
	note F#, 2
	rest 4
	note C#, 4
;Bar 50
	note F#, 4
	rest 2
	note F#, 2
	note A_, 4
	note B_, 4
;Bar 51
	note E_, 8
	octave 1
	note B_, 8
	note E_, 8
	rest 8
	sound_loop 0, .loop
	
Music_SandgemTown_Ch4:
	toggle_noise 3
	drum_speed 12
	rest 16
	rest 16
	drum_note 5, 8 ; Triangle    2/8/9 are hat - 5 is a triangle - 11 kick2 - 12 open hat
	drum_note 5, 8 ; Triangle
	drum_note 5, 8 ; Triangle
	drum_note 4, 2 ; Kick
	drum_note 4, 2 ; Kick
	drum_note 3, 4 ; Snare
	.loop
	sound_call .sub1
	sound_call .sub1
	sound_call .sub1
	sound_call .sub2
	sound_call .sub1
	sound_call .sub1
	sound_call .sub1
	sound_call .sub2
	sound_call .sub1
	sound_call .sub1
	sound_call .sub1
	drum_note 4, 4 ; Kick
	drum_note 9, 4 ; Hat
	drum_note 3, 4 ; Snare
	drum_note 9, 2 ; Hat
	drum_note 4, 2 ; Kick
	drum_note 4, 4 ; Kick
	drum_note 9, 4 ; Hat
	drum_note 3, 4 ; Snare
	drum_note 9, 4 ; Hat
	drum_note 4, 4 ; Kick
	drum_note 3, 4 ; Snare
	drum_note 4, 2 ; Kick
	drum_note 4, 2 ; Kick
	drum_note 3, 4 ; Snare
	drum_note 3, 8 ; Snare
	drum_note 7, 8 ; Open Hat
	sound_loop 0, .loop
	
.sub1
	drum_note 4, 4 ; Kick
	drum_note 9, 4 ; Hat
	drum_note 3, 4 ; Snare
	drum_note 9, 2 ; Hat
	drum_note 4, 2 ; Kick
	drum_note 4, 4 ; Kick
	drum_note 9, 4 ; Hat
	drum_note 3, 4 ; Snare
	drum_note 9, 4 ; Hat
	drum_note 4, 4 ; Kick
	drum_note 9, 4 ; Hat
	drum_note 3, 4 ; Snare
	drum_note 9, 2 ; Hat
	drum_note 4, 2 ; Kick
	drum_note 4, 4 ; Kick
	drum_note 9, 4 ; Hat
	drum_note 3, 4 ; Snare
	drum_note 7, 4 ; Open Hat
	sound_ret

.sub2
	drum_note 7, 12 ; Open Hat
	drum_note 7, 8 ; Open Hat
	drum_note 9, 4 ; Hat
	drum_note 9, 4 ; Hat
	drum_note 9, 4 ; Hat
	drum_note 7, 12 ; Open Hat
	drum_note 7, 4 ; Open Hat
	drum_note 3, 2 ; Snare
	drum_note 3, 2 ; Snare
	drum_note 4, 4 ; Kick
	drum_note 3, 4 ; Snare
	drum_note 4, 4 ; Kick
	sound_ret
	
