Music_SinnohWildBattle:
	channel_count 3
	channel 1, Music_SinnohWildBattle_Ch1
	channel 2, Music_SinnohWildBattle_Ch2
	channel 3, Music_SinnohWildBattle_Ch3

Music_SinnohWildBattle_Ch1_sub_0:
	octave 5
	note E_, 2
	octave 4
	note A_, 2
	note B_, 2
	note E_, 2
	note G_, 2
	note D_, 2
	note E_, 2
	note C_, 2
	note D_, 2
	octave 3
	note B_, 2
	octave 4
	note C_, 2
	octave 3
	note A_, 2
	note B_, 2
	note G_, 2
	sound_ret
Music_SinnohWildBattle_Ch1_sub_1:
	note A_, 6
	note F#, 4
	note D_, 2
	note A_, 2
	octave 4
	note D_, 2
	octave 3
	note D_, 2
	note G_, 2
	note A_, 2
	note G_, 2
	note D_, 2
	note F#, 2
	note A_, 2
	sound_ret
Music_SinnohWildBattle_Ch1_sub_2:
	octave 3
	note E_, 10
	note C_, 2
	note G_, 2
	octave 4
	note C_, 2
	octave 3
	note C_, 2
	note F_, 2
	note G_, 2
	note F_, 2
	note C_, 2
	note E_, 2
	note G_, 2
	sound_ret
Music_SinnohWildBattle_Ch1::
	tempo 104
	volume 7, 7
	duty_cycle 3
	vibrato 18, 1, 5
	note_type 12, 11, 2
	pitch_offset 1
	octave 4
	note C_, 1
	octave 3
	note B_, 1
	note A#, 1
	note A_, 1
	note A#, 1
	note A_, 1
	note G#, 1
	note G_, 1
	note G#, 1
	note G_, 1
	note F#, 1
	note F_, 1
	note F#, 1
	note F_, 1
	note E_, 1
	note D#, 1
	note E_, 1
	note D#, 1
	note D_, 1
	note C#, 1
	note D_, 1
	note C#, 1
	note C_, 1
	octave 2
	note B_, 1
	octave 3
	note C_, 1
	octave 2
	note B_, 1
	note A#, 1
	note A_, 1
	note A#, 1
	note A_, 1
	note G#, 1
	note G_, 1
	note G_, 6
	octave 3
	note C_, 6
	note C#, 6
	rest 6
	octave 2
	volume_envelope 11, 5
	note G_, 8
	volume_envelope 11, 2
	note G#, 6
	octave 3
	note C#, 6
	note D#, 6
	rest 6
	octave 2
	volume_envelope 11, 5
	note G#, 8
	volume_envelope 11, 2
	octave 3
	note G_, 6
	octave 4
	note C_, 6
	note C#, 6
	rest 6
	octave 3
	volume_envelope 11, 5
	note G_, 8
	volume_envelope 11, 2
	note G#, 6
	octave 4
	note C#, 6
	note D#, 6
	rest 6
	volume_envelope 6, -7
	note G#, 8
.loop
	volume_envelope 11, 6
	sound_call Music_SinnohWildBattle_Ch1_sub_2
	octave 4
	note C_, 2
	note C#, 4
	octave 3
	note C#, 8
	note D#, 8
	note F_, 4
	note G#, 8
	sound_call Music_SinnohWildBattle_Ch1_sub_2
	note A_, 2
	note F_, 4
	note F_, 8
	note D#, 8
	note C#, 4
	note F_, 4
	note G_, 4
	sound_call Music_SinnohWildBattle_Ch1_sub_1
	octave 4
	note D_, 2
	note D#, 4
	octave 3
	note D#, 8
	note F_, 8
	note G_, 8
	note A#, 4
	sound_call Music_SinnohWildBattle_Ch1_sub_1
	note B_, 2
	note G_, 2
	note A_, 2
	octave 4
	note D#, 2
	note G_, 4
	note F_, 2
	note D#, 2
	note D_, 2
	note D#, 4
	note D#, 4
	note G_, 4
	octave 3
	note A#, 4
	note G_, 10
	note G_, 2
	note F_, 2
	note D#, 2
	octave 2
	note A#, 6
	note G_, 10
	octave 3
	note C#, 8
	note F_, 8
	note G#, 8
	note G_, 8
	note G_, 2
	note F_, 2
	note D#, 2
	note F_, 2
	note G_, 8
	note D#, 2
	note C#, 2
	note C_, 2
	note C#, 2
	note D#, 8
	note G_, 2
	note F_, 2
	note D#, 2
	note F_, 2
	note G_, 4
	octave 4
	note D#, 2
	note F_, 2
	note G_, 2
	note F_, 2
	note D#, 2
	note F_, 2
	note G_, 8
	volume_envelope 11, 7
	note F_, 16
	note F#, 16
	volume_envelope 11, 0
	note G_, 16
	volume_envelope 11, 7
	note G_, 16
	rest 6
	volume_envelope 11, 6
	octave 3
	note C_, 6
	octave 2
	note A#, 4
	note G#, 16
	rest 6
	octave 3
	note C_, 6
	octave 2
	note A#, 4
	octave 3
	note C#, 16
	volume_envelope 11, 2
	sound_call Music_SinnohWildBattle_Ch1_sub_0
	note A_, 2
	note F_, 2
	sound_call Music_SinnohWildBattle_Ch1_sub_0
	volume_envelope 11, 6
	octave 4
	note D#, 4
	note E_, 10
	note E_, 2
	note D_, 2
	note C_, 2
	octave 3
	note G_, 6
	note C_, 10
	octave 4
	note F_, 10
	note F_, 2
	note D#, 2
	note C#, 2
	octave 3
	note G#, 6
	note C#, 10
	octave 4
	note F#, 10
	note F#, 2
	note E_, 2
	note D_, 2
	octave 3
	note A_, 6
	note D_, 10
	rest 16
	volume_envelope 6, -7
	note A_, 16
	sound_loop 0, .loop
Music_SinnohWildBattle_Ch2_sub_0:
	octave 4
	note G_, 1
	octave 5
	note C_, 2
	note C_, 1
	octave 4
	note G_, 1
	octave 5
	note C_, 2
	sound_ret
Music_SinnohWildBattle_Ch2_sub_1:
	note C_, 6
	note G_, 6
	note F_, 6
	rest 6
	volume_envelope 12, 5
	note C_, 8
	volume_envelope 12, 2
	note C#, 6
	note G#, 6
	note G_, 6
	rest 6
	sound_ret
Music_SinnohWildBattle_Ch2_sub_2:
	note D_, 10
	octave 3
	note A_, 2
	octave 4
	note D_, 2
	note A_, 2
	note G_, 2
	note F#, 2
	note E_, 2
	note D_, 2
	note G_, 2
	note F#, 2
	sound_ret
Music_SinnohWildBattle_Ch2_sub_3:
	note C_, 10
	octave 3
	note G_, 2
	octave 4
	note C_, 2
	note G_, 2
	note F_, 2
	note E_, 2
	note D_, 2
	note C_, 2
	note F_, 2
	note E_, 2
	sound_ret
Music_SinnohWildBattle_Ch2_sub_4:
	note A#, 2
	note G#, 2
	note G_, 2
	note G#, 2
	volume_envelope 12, 0
	note A#, 8
	volume_envelope 12, 6
	note A#, 16
	sound_ret
Music_SinnohWildBattle_Ch2::
	duty_cycle 3
	vibrato 8, 3, 6
	note_type 12, 12, 2
	octave 5
	note C_, 1
	sound_call Music_SinnohWildBattle_Ch2_sub_0
	note C_, 1
	sound_call Music_SinnohWildBattle_Ch2_sub_0
	note C_, 1
	sound_call Music_SinnohWildBattle_Ch2_sub_0
	note C_, 1
	sound_call Music_SinnohWildBattle_Ch2_sub_0
	octave 3
	sound_call Music_SinnohWildBattle_Ch2_sub_1
	volume_envelope 12, 5
	note C#, 8
	volume_envelope 12, 2
	octave 4
	sound_call Music_SinnohWildBattle_Ch2_sub_1
	octave 5
	volume_envelope 6, -7
	note C#, 8
	octave 4
.loop
	volume_envelope 12, 6
	sound_call Music_SinnohWildBattle_Ch2_sub_3
	note F_, 2
	note G_, 2
	volume_envelope 12, 0
	note G#, 16
	volume_envelope 12, 7
	note G#, 16
	sound_call Music_SinnohWildBattle_Ch2_sub_3
	note D_, 2
	note C_, 2
	octave 3
	volume_envelope 12, 0
	note A#, 16
	volume_envelope 12, 7
	note A#, 12
	octave 4
	note C#, 4
	sound_call Music_SinnohWildBattle_Ch2_sub_2
	note G_, 2
	note A_, 2
	volume_envelope 12, 0
	note A#, 16
	volume_envelope 12, 7
	note A#, 16
	volume_envelope 12, 7
	sound_call Music_SinnohWildBattle_Ch2_sub_2
	note E_, 2
	note D_, 2
	volume_envelope 12, 0
	note C_, 16
	volume_envelope 12, 5
	note C_, 12
	volume_envelope 12, 6
	note D#, 4
	octave 3
	note A#, 10
	note A#, 2
	note G#, 2
	note G_, 2
	note D#, 6
	octave 2
	note A#, 10
	octave 3
	note F_, 8
	note G#, 8
	octave 4
	note C#, 8
	note C_, 8
	octave 3
	sound_call Music_SinnohWildBattle_Ch2_sub_4
	sound_call Music_SinnohWildBattle_Ch2_sub_4
	octave 4
	volume_envelope 12, 7
	note G#, 16
	note A_, 16
	volume_envelope 12, 0
	note A#, 16
	volume_envelope 12, 7
	note A#, 16
	volume_envelope 12, 6
	octave 3
	note C_, 6
	note G_, 6
	note F_, 4
	note C#, 16
	note C_, 6
	note G_, 6
	note F_, 4
	note G#, 16
	note E_, 6
	note B_, 6
	note A_, 4
	note F_, 16
	note E_, 6
	note B_, 6
	note A_, 4
	octave 4
	note C_, 12
	note F#, 4
	note G_, 10
	note G_, 2
	note F_, 2
	note E_, 2
	note C_, 6
	octave 3
	note G_, 10
	octave 4
	note G#, 10
	note G#, 2
	note F#, 2
	note F_, 2
	note C#, 6
	octave 3
	note G#, 10
	octave 4
	note A_, 10
	note A_, 2
	note G_, 2
	note F#, 2
	note D_, 6
	octave 3
	note A_, 10
	rest 16
	octave 4
	volume_envelope 6, -7
	note D_, 16
	sound_loop 0, .loop
Music_SinnohWildBattle_Ch3_sub_0:
	note C_, 2
	octave 2
	note G_, 2
	octave 3
	note C_, 2
	note G_, 4
	note G_, 2
	note C_, 2
	note G_, 2
	note C_, 2
	octave 2
	note G_, 2
	octave 3
	note C_, 2
	note F_, 4
	note G_, 2
	note G_, 2
	note F_, 2
	note C#, 2
	note G#, 2
	sound_ret
Music_SinnohWildBattle_Ch3_sub_1:
	note C_, 2
	note G_, 2
	note C_, 2
	note G_, 2
	note C_, 2
	note G_, 2
	note C_, 2
	note G_, 2
	note C_, 2
	note G_, 2
	note C_, 4
	note G_, 2
	note F_, 2
	note D#, 2
	note G_, 2
	note C#, 2
	note G#, 2
	note C#, 2
	note G#, 2
	note C#, 2
	note G#, 2
	note C#, 2
	note G#, 2
	note C#, 2
	note G#, 2
	note C#, 4
	note G#, 2
	note G_, 2
	note F_, 2
	note G#, 2
	sound_ret
Music_SinnohWildBattle_Ch3_sub_2:
	note D_, 2
	octave 2
	note A_, 2
	octave 3
	note D_, 2
	note A_, 4
	note A_, 2
	note D_, 2
	note A_, 2
	note D_, 2
	octave 2
	note A_, 2
	octave 3
	note D_, 2
	note G_, 4
	note A_, 2
	note A_, 2
	note G_, 2
	note D#, 2
	note A#, 2
	octave 4
	sound_ret
Music_SinnohWildBattle_Ch3_sub_3:
	note A#, 2
	note D#, 2
	note A#, 2
	note D#, 2
	note A#, 2
	note D#, 2
	note A#, 2
	sound_ret
Music_SinnohWildBattle_Ch3_sub_4:
	note C_, 2
	note G_, 2
	note C_, 2
	note G_, 2
	note G_, 2
	note C_, 2
	note G_, 2
	note C_, 2
	note C#, 2
	note G#, 2
	note C#, 2
	note G#, 2
	note G#, 2
	note C#, 2
	note C#, 2
	note G#, 2
	sound_ret
Music_SinnohWildBattle_Ch3_sub_5:
	note D_, 2
	note A_, 2
	note D_, 2
	note A_, 2
	note A_, 2
	note D_, 2
	note A_, 2
	note D_, 2
	note D#, 2
	note A#, 2
	note D#, 2
	note A#, 2
	note A#, 2
	note D#, 2
	note D#, 2
	note A#, 2
	sound_ret
Music_SinnohWildBattle_Ch3_sub_6:
	octave 3
	note D_, 2
	note A_, 2
	octave 4
	note F#, 2
	note D_, 4
	octave 3
	note A_, 2
	note F#, 2
	note A_, 2
	note D_, 2
	note A_, 2
	octave 4
	note D_, 2
	octave 3
	note A_, 2
	sound_ret
Music_SinnohWildBattle_Ch3_sub_7:
	note D#, 4
	octave 3
	note A#, 2
	note G_, 2
	note A#, 2
	note D#, 2
	note A#, 2
	octave 4
	note G_, 2
	sound_ret
Music_SinnohWildBattle_Ch3_sub_8:
	note A#, 2
	note D#, 2
	note A#, 2
	octave 4
	note D#, 2
	octave 3
	sound_ret
Music_SinnohWildBattle_Ch3_sub_9:
	note G#, 2
	note F_, 2
	note G#, 2
	note C#, 2
	note G#, 2
	octave 4
	note C#, 2
	octave 3
	note G#, 2
	sound_ret
Music_SinnohWildBattle_Ch3::
	note_type 12, 1, 4
	octave 3
	note D_, 1
	rest 1
	note D#, 1
	note E_, 1
	note D#, 1
	rest 1
	note E_, 1
	note F_, 1
	note E_, 1
	rest 1
	note F_, 1
	note F#, 1
	note F_, 1
	rest 1
	note F#, 1
	note G_, 1
	note F#, 1
	rest 1
	note G_, 1
	note G#, 1
	note G_, 1
	rest 1
	note G#, 1
	note A_, 1
	note G#, 1
	rest 1
	note D#, 2
	note D_, 2
	note C#, 2
	sound_call Music_SinnohWildBattle_Ch3_sub_1
	sound_call Music_SinnohWildBattle_Ch3_sub_1
.loop
	sound_call Music_SinnohWildBattle_Ch3_sub_0
	octave 4
	note G#, 2
	note C#, 4
	octave 3
	note G#, 2
	note F_, 2
	note G#, 2
	note C#, 2
	note G#, 2
	octave 4
	note F_, 2
	note C#, 4
	octave 3
	note G#, 2
	note F_, 2
	note G#, 2
	sound_call Music_SinnohWildBattle_Ch3_sub_0
	octave 2
	note G#, 2
	octave 3
	note C#, 4
	sound_call Music_SinnohWildBattle_Ch3_sub_9
	note G#, 2
	octave 4
	note C#, 2
	octave 3
	note C#, 2
	note G#, 2
	sound_call Music_SinnohWildBattle_Ch3_sub_2
	note A#, 2
	sound_call Music_SinnohWildBattle_Ch3_sub_7
	note D#, 4
	octave 3
	note A#, 2
	note G_, 2
	note A#, 2
	sound_call Music_SinnohWildBattle_Ch3_sub_2
	note G_, 2
	sound_call Music_SinnohWildBattle_Ch3_sub_7
	octave 3
	note A#, 2
	note D#, 2
	note G_, 2
	note A#, 2
	octave 4
	note D#, 2
	octave 3
	note D#, 2
	sound_call Music_SinnohWildBattle_Ch3_sub_3
	octave 2
	note A#, 2
	octave 3
	note D#, 2
	octave 2
	note A#, 2
	octave 3
	note D#, 2
	octave 2
	note A#, 2
	octave 3
	note D#, 2
	octave 2
	note A#, 2
	octave 3
	note D#, 2
	note G#, 2
	note C#, 2
	octave 4
	note C#, 4
	octave 3
	note G#, 2
	note C#, 2
	octave 4
	note F_, 4
	octave 3
	note G#, 2
	note C#, 2
	octave 4
	note F_, 2
	octave 3
	note G#, 2
	octave 4
	note C#, 2
	note C_, 2
	octave 3
	note A#, 2
	note G#, 2
	note D#, 2
	sound_call Music_SinnohWildBattle_Ch3_sub_3
	note D#, 2
	sound_call Music_SinnohWildBattle_Ch3_sub_3
	note D#, 2
	sound_call Music_SinnohWildBattle_Ch3_sub_3
	note D#, 2
	sound_call Music_SinnohWildBattle_Ch3_sub_3
	note C_, 2
	note G_, 2
	note C_, 2
	note G_, 2
	note C_, 2
	note G_, 2
	note C_, 2
	note G_, 2
	note C#, 2
	note G#, 2
	note C#, 2
	note G#, 2
	note C#, 2
	note G#, 2
	note C#, 2
	note G#, 2
	sound_call Music_SinnohWildBattle_Ch3_sub_8
	sound_call Music_SinnohWildBattle_Ch3_sub_8
	sound_call Music_SinnohWildBattle_Ch3_sub_8
	note A#, 2
	octave 2
	note B_, 2
	note A_, 2
	note B_, 2
	octave 3
	sound_call Music_SinnohWildBattle_Ch3_sub_4
	sound_call Music_SinnohWildBattle_Ch3_sub_4
	sound_call Music_SinnohWildBattle_Ch3_sub_5
	sound_call Music_SinnohWildBattle_Ch3_sub_5
	sound_call Music_SinnohWildBattle_Ch3_sub_0
	octave 4
	note F_, 2
	note C#, 4
	octave 3
	sound_call Music_SinnohWildBattle_Ch3_sub_9
	note C#, 2
	note F_, 2
	note G#, 2
	octave 4
	note C#, 2
	sound_call Music_SinnohWildBattle_Ch3_sub_6
	note D_, 2
	note F#, 2
	note A_, 2
	octave 4
	note D_, 2
	sound_call Music_SinnohWildBattle_Ch3_sub_6
	octave 4
	note D_, 2
	octave 3
	note G_, 2
	note A_, 2
	note G_, 2
	sound_loop 0, .loop