Music_SinnohTrainerBattle:
	channel_count 3
	channel 1, Music_SinnohTrainerBattle_Ch1
	channel 2, Music_SinnohTrainerBattle_Ch2
	channel 3, Music_SinnohTrainerBattle_Ch3

Music_SinnohTrainerBattle_Ch1_sub_0:
	note C#, 2
	note C_, 6
	note C#, 4
	note C_, 2
	octave 3
	note A#, 2
	octave 4
	note C#, 2
	note C_, 6
	note C#, 4
	note C_, 2
	octave 3
	note A#, 2
	octave 4
	sound_ret
Music_SinnohTrainerBattle_Ch1_sub_1:
	note C_, 6
	note G_, 6
	octave 4
	note C_, 4
	octave 3
	note A#, 4
	note G#, 4
	note G_, 4
	note F_, 4
	note E_, 1
	rest 2
	note F_, 1
	note G_, 8
	octave 4
	sound_ret
Music_SinnohTrainerBattle_Ch1_sub_2:
	note G_, 4
	rest 2
	note G_, 4
	rest 2
	note G_, 4
	note G_, 4
	note C_, 4
	note G_, 2
	note G#, 2
	sound_ret
Music_SinnohTrainerBattle_Ch1_sub_3:
	note C_, 4
	rest 2
	note C_, 4
	rest 2
	note C_, 4
	note C_, 4
	octave 3
	rest 4
	octave 4
	note C_, 2
	note C#, 2
	sound_ret
Music_SinnohTrainerBattle_Ch1_sub_4:
	pitch_offset 1
	octave 2
	volume_envelope 11, 2
	note C#, 2
	octave 1
	note G#, 2
	note G#, 2
	octave 2
	note C#, 2
	octave 1
	note G#, 2
	note G#, 2
	octave 2
	note C#, 2
	octave 1
	note G#, 2
	pitch_offset 0
	volume_envelope 11, 7
	sound_ret
Music_SinnohTrainerBattle_Ch1_sub_5:
	pitch_offset 1
	octave 2
	volume_envelope 11, 2
	note C_, 2
	octave 1
	note G_, 2
	note G_, 2
	octave 2
	note C_, 2
	octave 1
	note G_, 2
	note G_, 2
	octave 2
	note C_, 2
	octave 1
	note G_, 2
	pitch_offset 0
	volume_envelope 11, 7
	sound_ret
Music_SinnohTrainerBattle_Ch1_sub_6:
	note C_, 2
	note F_, 2
	note G#, 2
	note G_, 2
	note C_, 2
	note G_, 2
	note C#, 2
	note F_, 2
	note C_, 2
	note F_, 2
	note G#, 2
	note G_, 2
	note C_, 2
	note G_, 2
	note C#, 2
	sound_ret
Music_SinnohTrainerBattle_Ch1::
	tempo 101
	volume 7, 7
	vibrato 18, 1, 5
	duty_cycle 3
	note_type 12, 9, 2
	octave 4
	note C_, 1
	octave 3
	note B_, 1
	note A#, 1
	note A_, 1
	note A#, 1
	note A_, 1
	note G#, 1
	note G_, 1
	note G#, 1
	note G_, 1
	note F#, 1
	note F_, 1
	note F#, 1
	note F_, 1
	note E_, 1
	note D#, 1
	note E_, 1
	note D#, 1
	note D_, 1
	note C#, 1
	note D_, 1
	note C#, 1
	note C_, 1
	octave 2
	note B_, 1
	octave 3
	note C_, 1
	octave 2
	note B_, 1
	note A#, 1
	note A_, 1
	note A#, 1
	note A_, 1
	note G#, 1
	note G_, 1
	volume_envelope 11, 2
	octave 4
	sound_call Music_SinnohTrainerBattle_Ch1_sub_3
	octave 3
	note A#, 2
	octave 4
	note C#, 2
	sound_call Music_SinnohTrainerBattle_Ch1_sub_3
	note D#, 2
	note E_, 2
	sound_call Music_SinnohTrainerBattle_Ch1_sub_2
	note F_, 2
	note G#, 2
	sound_call Music_SinnohTrainerBattle_Ch1_sub_2
	note A#, 2
	note B_, 2
.loop
	volume_envelope 11, 7
	vibrato 8, 3, 6
	octave 3
	sound_call Music_SinnohTrainerBattle_Ch1_sub_1
	note D_, 4
	octave 3
	note A#, 16
	sound_call Music_SinnohTrainerBattle_Ch1_sub_1
	note C_, 1
	rest 2
	note D_, 1
	note E_, 8
	note D_, 8
	vibrato 18, 1, 5
	octave 2
	note G_, 1
	rest 2
	volume_envelope 11, 1
	note E_, 1
	volume_envelope 11, 7
	note E_, 4
	octave 3
	note C_, 1
	rest 2
	octave 2
	volume_envelope 11, 1
	note G_, 1
	volume_envelope 11, 7
	note G_, 4
	octave 3
	note E_, 1
	rest 2
	volume_envelope 11, 1
	note C_, 1
	volume_envelope 11, 7
	note C_, 12
	octave 2
	note A#, 1
	rest 2
	volume_envelope 11, 1
	note F_, 1
	volume_envelope 11, 7
	note F_, 4
	octave 3
	note D_, 1
	rest 2
	octave 2
	volume_envelope 11, 1
	note A#, 1
	volume_envelope 11, 7
	note A#, 4
	octave 3
	note F_, 1
	rest 2
	volume_envelope 11, 1
	note D_, 1
	volume_envelope 11, 7
	note D_, 12
	note G_, 8
	note E_, 1
	rest 2
	note F_, 1
	note E_, 4
	octave 4
	note C_, 8
	octave 3
	note A_, 2
	note G_, 2
	note F_, 2
	note G_, 2
	note A_, 2
	note B_, 2
	octave 4
	note C_, 2
	note D_, 2
	note C_, 2
	octave 3
	note B_, 2
	note A_, 2
	note G_, 2
	note F_, 2
	note E_, 2
	note D_, 2
	note E_, 2
	note F_, 2
	note G_, 2
	note A_, 2
	note B_, 2
	note D_, 1
	rest 1
	note D_, 1
	rest 1
	note D_, 1
	rest 7
	note D_, 1
	rest 2
	note E_, 1
	note F_, 8
	note D_, 8
	note E_, 1
	rest 1
	note E_, 1
	rest 1
	note E_, 1
	rest 7
	note E_, 1
	rest 2
	note F_, 1
	note G_, 8
	note E_, 8
	note F_, 1
	rest 1
	note F_, 1
	rest 1
	note F_, 1
	rest 7
	note F_, 1
	rest 2
	note G_, 1
	note G#, 8
	note F_, 8
	note G_, 1
	rest 1
	note G_, 1
	rest 1
	note G_, 1
	rest 7
	note G_, 1
	rest 2
	note G#, 1
	note A#, 8
	note G_, 4
	note A#, 4
	octave 4
	note C_, 16
	rest 8
	octave 3
	note A#, 3
	octave 4
	note C_, 3
	octave 3
	note A#, 2
	note A_, 16
	note F_, 16
	note C_, 16
	sound_call Music_SinnohTrainerBattle_Ch1_sub_5
	octave 3
	note C#, 16
	sound_call Music_SinnohTrainerBattle_Ch1_sub_4
	octave 2
	note A#, 16
	volume_envelope 11, 2
	pitch_offset 1
	octave 1
	note A#, 2
	note F_, 2
	note F_, 2
	note A#, 2
	note F_, 2
	note F_, 2
	note A#, 2
	note F_, 2
	pitch_offset 0
	volume_envelope 11, 7
	octave 3
	note C#, 16
	sound_call Music_SinnohTrainerBattle_Ch1_sub_4
	octave 3
	note C_, 16
	sound_call Music_SinnohTrainerBattle_Ch1_sub_5
	octave 3
	note C#, 16
	sound_call Music_SinnohTrainerBattle_Ch1_sub_4
	octave 3
	note D#, 16
	volume_envelope 11, 2
	pitch_offset 1
	octave 2
	note D#, 2
	octave 1
	note A#, 2
	note A#, 2
	octave 2
	note D#, 2
	octave 1
	note A#, 2
	note A#, 2
	octave 2
	note D#, 2
	octave 1
	note A#, 2
	octave 3
	pitch_offset 0
	volume_envelope 11, 7
	note F#, 16
	volume_envelope 11, 2
	pitch_offset 1
	note F#, 2
	note C#, 2
	note C#, 2
	note F#, 2
	note C#, 2
	note C#, 2
	note F#, 2
	note C#, 2
	pitch_offset 0
	octave 4
	volume_envelope 11, 4
	note C_, 6
	note C#, 4
	note C_, 2
	octave 3
	note A#, 2
	octave 4
	sound_call Music_SinnohTrainerBattle_Ch1_sub_0
	sound_call Music_SinnohTrainerBattle_Ch1_sub_0
	sound_call Music_SinnohTrainerBattle_Ch1_sub_0
	sound_call Music_SinnohTrainerBattle_Ch1_sub_0
	sound_call Music_SinnohTrainerBattle_Ch1_sub_0
	note C#, 2
	note C_, 2
	note C#, 2
	note D#, 2
	note F_, 2
	note F#, 2
	note C_, 2
	note C#, 2
	octave 3
	note A#, 2
	octave 4
	volume_envelope 11, 1
	pitch_offset 1
	duty_cycle 2
	sound_call Music_SinnohTrainerBattle_Ch1_sub_6
	note F_, 2
	sound_call Music_SinnohTrainerBattle_Ch1_sub_6
	note F_, 2
	sound_call Music_SinnohTrainerBattle_Ch1_sub_6
	note F_, 2
	sound_call Music_SinnohTrainerBattle_Ch1_sub_6
	note F_, 2
	duty_cycle 3
	pitch_offset 0
	sound_loop 0, .loop
Music_SinnohTrainerBattle_Ch2_sub_0:
	note C_, 2
	note F_, 2
	note G#, 2
	note G_, 2
	note C_, 2
	note G_, 2
	note C#, 2
	note F_, 2
	note C_, 2
	note F_, 2
	note G#, 2
	note G_, 2
	note C_, 2
	note G_, 2
	note C#, 2
	sound_ret
Music_SinnohTrainerBattle_Ch2_sub_1:
	note F#, 2
	note F_, 6
	note F#, 4
	note F_, 2
	note D#, 2
	note F#, 2
	note F_, 6
	note F#, 4
	note F_, 2
	note D#, 2
	sound_ret
Music_SinnohTrainerBattle_Ch2_sub_2:
	octave 2
	note G_, 6
	octave 3
	note C_, 6
	note G_, 4
	note G_, 4
	note F_, 4
	note E_, 4
	note C_, 2
	note D_, 2
	note C_, 1
	rest 2
	note D_, 1
	note E_, 8
	sound_ret
Music_SinnohTrainerBattle_Ch2_sub_3:
	volume_envelope 11, 2
	note G_, 4
	rest 2
	note G_, 4
	rest 2
	note G_, 4
	note G_, 4
	note G_, 4
	volume_envelope 11, 4
	note G_, 2
	note G#, 6
	sound_ret
Music_SinnohTrainerBattle_Ch2_sub_4:
	volume_envelope 11, 2
	note C_, 4
	rest 2
	note C_, 4
	rest 2
	note C_, 4
	note C_, 4
	rest 4
	volume_envelope 11, 4
	note C_, 2
	note C#, 6
	sound_ret
Music_SinnohTrainerBattle_Ch2_sub_5:
	octave 3
	volume_envelope 11, 2
	note C#, 2
	octave 2
	note G#, 2
	note G#, 2
	octave 3
	note C#, 2
	octave 2
	note G#, 2
	note G#, 2
	octave 3
	note C#, 2
	octave 2
	note G#, 2
	volume_envelope 11, 7
	sound_ret
Music_SinnohTrainerBattle_Ch2_sub_6:
	octave 3
	volume_envelope 11, 2
	note C_, 2
	octave 2
	note G_, 2
	note G_, 2
	octave 3
	note C_, 2
	octave 2
	note G_, 2
	note G_, 2
	octave 3
	note C_, 2
	octave 2
	note G_, 2
	volume_envelope 11, 7
	sound_ret
Music_SinnohTrainerBattle_Ch2::
	duty_cycle 3
	vibrato 8, 3, 6
	note_type 12, 12, 2
	octave 5
	note E_, 2
	note D#, 1
	note D_, 1
	note D#, 2
	note D_, 1
	note C#, 1
	note D_, 2
	note C#, 1
	note C_, 1
	note C#, 2
	note C_, 1
	octave 4
	note B_, 1
	octave 5
	note C_, 2
	octave 4
	note B_, 1
	note A#, 1
	note B_, 2
	note A#, 1
	note A_, 1
	note A#, 2
	note A_, 1
	note G#, 1
	note A_, 2
	note G#, 1
	note G_, 1
	octave 3
	sound_call Music_SinnohTrainerBattle_Ch2_sub_3
	sound_call Music_SinnohTrainerBattle_Ch2_sub_3
	octave 4
	sound_call Music_SinnohTrainerBattle_Ch2_sub_4
	sound_call Music_SinnohTrainerBattle_Ch2_sub_4
.loop
	volume_envelope 11, 7
	vibrato 18, 1, 5
	octave 4
	sound_call Music_SinnohTrainerBattle_Ch2_sub_2
	note D_, 1
	rest 2
	note E_, 1
	note F_, 4
	note G#, 4
	note G_, 4
	note F_, 4
	sound_call Music_SinnohTrainerBattle_Ch2_sub_2
	note G_, 1
	rest 2
	note A_, 1
	note A#, 8
	note A_, 4
	note A#, 4
	vibrato 8, 3, 6
	note E_, 1
	rest 2
	volume_envelope 11, 1
	note C_, 1
	volume_envelope 11, 7
	note C_, 4
	note G_, 1
	rest 2
	volume_envelope 11, 1
	note E_, 1
	volume_envelope 11, 7
	note E_, 4
	octave 4
	note C_, 1
	rest 2
	octave 3
	volume_envelope 11, 1
	note G_, 1
	volume_envelope 11, 7
	note G_, 12
	note F_, 1
	rest 2
	volume_envelope 11, 1
	note D_, 1
	volume_envelope 11, 7
	note D_, 4
	note A#, 1
	rest 2
	volume_envelope 11, 1
	note F_, 1
	volume_envelope 11, 7
	note F_, 4
	octave 4
	note D_, 1
	rest 2
	octave 3
	volume_envelope 11, 1
	note A#, 1
	volume_envelope 11, 7
	note A#, 8
	note B_, 4
	octave 4
	note C_, 12
	octave 3
	note G_, 4
	octave 4
	note E_, 12
	note C_, 4
	note G_, 12
	note F_, 3
	note D#, 1
	note E_, 16
	note G_, 8
	note F_, 2
	note E_, 2
	note D_, 2
	note C_, 2
	note D_, 8
	volume_envelope 11, 3
	note A#, 1
	octave 5
	note C_, 1
	note D_, 6
	octave 4
	volume_envelope 11, 7
	note E_, 8
	note G_, 2
	note F_, 2
	note E_, 2
	note D_, 2
	note E_, 8
	octave 5
	volume_envelope 11, 3
	note C_, 1
	note D_, 1
	note E_, 6
	octave 4
	volume_envelope 11, 7
	note F_, 3
	note E_, 3
	note F_, 2
	note G#, 2
	note G_, 2
	note F_, 2
	note D#, 2
	note G#, 2
	note G_, 2
	note F_, 2
	note D#, 2
	note F_, 2
	note G_, 2
	note G#, 2
	note A#, 2
	note G_, 2
	note G#, 2
	note A#, 2
	octave 5
	note C_, 2
	octave 4
	note A#, 2
	note G#, 2
	note G_, 2
	note F_, 2
	note G_, 4
	note F_, 2
	note G_, 2
	note A#, 2
	note G#, 2
	note G_, 2
	note A#, 2
	note A_, 16
	note A#, 16
	octave 5
	note C_, 12
	octave 4
	note A#, 4
	note A_, 16
	octave 3
	note G_, 16
	sound_call Music_SinnohTrainerBattle_Ch2_sub_6
	octave 3
	note G#, 16
	sound_call Music_SinnohTrainerBattle_Ch2_sub_5
	octave 3
	note F_, 16
	volume_envelope 11, 2
	octave 2
	note A#, 2
	note F_, 2
	note F_, 2
	note A#, 2
	note F_, 2
	note F_, 2
	note A#, 2
	note F_, 2
	volume_envelope 11, 7
	octave 3
	note G#, 16
	sound_call Music_SinnohTrainerBattle_Ch2_sub_5
	octave 3
	note G_, 16
	sound_call Music_SinnohTrainerBattle_Ch2_sub_6
	octave 3
	note G#, 16
	sound_call Music_SinnohTrainerBattle_Ch2_sub_5
	octave 3
	note A#, 16
	volume_envelope 11, 2
	octave 3
	note D#, 2
	octave 2
	note A#, 2
	note A#, 2
	octave 3
	note D#, 2
	octave 2
	note A#, 2
	note A#, 2
	octave 3
	note D#, 2
	octave 2
	note A#, 2
	octave 4
	volume_envelope 11, 7
	note C#, 16
	volume_envelope 11, 2
	octave 2
	note F#, 2
	note C#, 2
	note C#, 2
	note F#, 2
	note C#, 2
	note C#, 2
	note F#, 2
	note C#, 2
	volume_envelope 11, 4
	octave 3
	note F_, 6
	note F#, 4
	note F_, 2
	note D#, 2
	sound_call Music_SinnohTrainerBattle_Ch2_sub_1
	sound_call Music_SinnohTrainerBattle_Ch2_sub_1
	sound_call Music_SinnohTrainerBattle_Ch2_sub_1
	sound_call Music_SinnohTrainerBattle_Ch2_sub_1
	sound_call Music_SinnohTrainerBattle_Ch2_sub_1
	note F#, 2
	note F_, 2
	note F#, 2
	note G#, 2
	note A#, 2
	octave 4
	note C_, 2
	octave 3
	note F_, 2
	note F#, 2
	note D#, 2
	volume_envelope 11, 3
	sound_call Music_SinnohTrainerBattle_Ch2_sub_0
	note F_, 2
	sound_call Music_SinnohTrainerBattle_Ch2_sub_0
	note F_, 2
	octave 4
	sound_call Music_SinnohTrainerBattle_Ch2_sub_0
	note F_, 2
	sound_call Music_SinnohTrainerBattle_Ch2_sub_0
	note F_, 2
	sound_loop 0, .loop
Music_SinnohTrainerBattle_Ch3_sub_0:
	note C_, 2
	octave 2
	note G_, 2
	octave 3
	note C_, 2
	note F_, 2
	note F#, 2
	note C_, 2
	note F_, 2
	note D#, 2
	note C_, 2
	octave 2
	note G_, 2
	octave 3
	note D#, 2
	note F_, 2
	octave 2
	note A#, 2
	octave 3
	note C#, 2
	octave 2
	note A#, 2
	octave 3
	note C#, 2
	note C_, 2
	octave 2
	note G_, 2
	octave 3
	note C_, 2
	note F_, 2
	note F#, 2
	note C_, 2
	note F_, 2
	note D#, 2
	note C_, 2
	sound_ret
Music_SinnohTrainerBattle_Ch3_sub_1:
	note C_, 2
	note G_, 2
	note C_, 2
	note G_, 2
	note C_, 2
	note G_, 2
	note C_, 2
	note G_, 2
	sound_ret
Music_SinnohTrainerBattle_Ch3_sub_2:
	note A#, 2
	octave 3
	note F_, 2
	octave 2
	note A#, 2
	octave 3
	note F_, 2
	octave 2
	note A#, 2
	octave 3
	note F_, 2
	octave 2
	note A#, 2
	octave 3
	note F_, 2
	sound_ret
Music_SinnohTrainerBattle_Ch3_sub_3:
	octave 3
	note F_, 2
	octave 4
	note C_, 2
	note C_, 2
	octave 3
	note F_, 2
	octave 4
	note C_, 2
	note C_, 2
	octave 3
	note F_, 2
	octave 4
	note C_, 2
	octave 3
	note F#, 2
	octave 4
	note C#, 2
	note C#, 2
	octave 3
	note F#, 2
	octave 4
	note C#, 2
	note C#, 2
	octave 3
	note F#, 2
	octave 4
	note C#, 2
	octave 3
	note G#, 2
	octave 4
	note D#, 2
	note D#, 2
	octave 3
	note G#, 2
	octave 4
	note D#, 2
	note D#, 2
	octave 3
	note G#, 2
	octave 4
	note D#, 2
	octave 3
	note A#, 2
	octave 4
	note F_, 2
	note F_, 2
	octave 3
	note A#, 2
	octave 4
	sound_ret
Music_SinnohTrainerBattle_Ch3_sub_4:
	note G#, 2
	note C#, 2
	note G#, 2
	note C#, 2
	note G#, 2
	note C#, 2
	note G#, 2
	note C#, 2
	note G#, 2
	note C#, 2
	note G#, 2
	note C#, 2
	note G#, 2
	note C#, 2
	note G#, 2
	sound_ret
Music_SinnohTrainerBattle_Ch3_sub_5:
	note F#, 2
	octave 4
	note C#, 2
	octave 3
	note F#, 2
	octave 4
	note C#, 2
	octave 3
	note F#, 2
	octave 4
	note C#, 2
	octave 3
	note F#, 2
	octave 4
	note C#, 2
	sound_ret
Music_SinnohTrainerBattle_Ch3_sub_6:
	note A#, 2
	note D#, 2
	note A#, 2
	note D#, 2
	note A#, 2
	note D#, 2
	note A#, 2
	note D#, 2
	note A#, 2
	note D#, 2
	note A#, 2
	note D#, 2
	note A#, 2
	note D#, 2
	note A#, 2
	sound_ret
Music_SinnohTrainerBattle_Ch3_sub_7:
	note F_, 2
	note F#, 2
	note G_, 2
	note A#, 2
	note F_, 2
	note C#, 2
	octave 2
	note A#, 2
	octave 3
	sound_ret
Music_SinnohTrainerBattle_Ch3::
	note_type 12, 1, -1
	rest 16
	octave 3
	note C_, 1
	note C#, 1
	note D_, 1
	note D#, 1
	note E_, 1
	note F_, 1
	note F#, 1
	note G_, 1
	note F_, 1
	note F#, 1
	note G_, 1
	note G#, 1
	note A_, 1
	note A#, 1
	note B_, 1
	octave 4
	note C_, 1
	octave 3
	sound_call Music_SinnohTrainerBattle_Ch3_sub_0
	octave 2
	note G_, 2
	octave 3
	note D#, 2
	note F_, 2
	octave 2
	note A#, 2
	octave 3
	note C#, 2
	note D#, 2
	note C#, 2
	sound_call Music_SinnohTrainerBattle_Ch3_sub_0
	sound_call Music_SinnohTrainerBattle_Ch3_sub_7
.loop
	octave 3
	note C_, 2
	note G_, 2
	note C_, 2
	note G_, 2
	note C_, 2
	note G_, 2
	note G_, 2
	note C_, 2
	note F_, 2
	note A#, 2
	note F_, 2
	note A#, 2
	note F_, 2
	note A#, 2
	note A#, 2
	note F_, 2
	sound_call Music_SinnohTrainerBattle_Ch3_sub_1
	note D_, 2
	note F_, 2
	note D_, 2
	note F_, 2
	note D_, 2
	note F_, 2
	note D_, 2
	note F_, 2
	note C_, 2
	note G_, 2
	note C_, 2
	note G_, 2
	note C_, 2
	note G_, 2
	note F_, 2
	note G_, 2
	note F_, 2
	note A#, 2
	note F_, 2
	note A#, 2
	note F_, 2
	note A#, 2
	note F_, 2
	note A#, 2
	sound_call Music_SinnohTrainerBattle_Ch3_sub_1
	note C_, 2
	octave 4
	note C_, 2
	octave 3
	note C_, 2
	octave 4
	note C_, 2
	octave 3
	note C_, 2
	octave 4
	note C_, 2
	octave 3
	note C_, 2
	octave 4
	note C_, 2
	octave 3
	sound_call Music_SinnohTrainerBattle_Ch3_sub_1
	sound_call Music_SinnohTrainerBattle_Ch3_sub_1
	octave 2
	sound_call Music_SinnohTrainerBattle_Ch3_sub_2
	octave 2
	sound_call Music_SinnohTrainerBattle_Ch3_sub_2
	sound_call Music_SinnohTrainerBattle_Ch3_sub_1
	sound_call Music_SinnohTrainerBattle_Ch3_sub_1
	sound_call Music_SinnohTrainerBattle_Ch3_sub_1
	note C_, 2
	note G_, 2
	note F_, 2
	note E_, 2
	note F_, 2
	note E_, 2
	note F_, 2
	note G_, 2
	octave 2
	sound_call Music_SinnohTrainerBattle_Ch3_sub_2
	octave 2
	sound_call Music_SinnohTrainerBattle_Ch3_sub_2
	sound_call Music_SinnohTrainerBattle_Ch3_sub_1
	sound_call Music_SinnohTrainerBattle_Ch3_sub_1
	note C#, 2
	sound_call Music_SinnohTrainerBattle_Ch3_sub_4
	note D#, 2
	sound_call Music_SinnohTrainerBattle_Ch3_sub_6
	note A_, 4
	note F_, 4
	note A_, 4
	note F_, 4
	note A_, 4
	note F_, 4
	note A_, 4
	note F_, 4
	note C_, 2
	note F_, 2
	note A_, 2
	note F_, 2
	note A_, 2
	octave 4
	note C_, 2
	note E_, 2
	note F_, 2
	note F_, 2
	octave 3
	note A_, 2
	octave 4
	note C_, 2
	octave 3
	note F_, 2
	note A_, 2
	note C_, 2
	note F_, 2
	note C_, 2
	sound_call Music_SinnohTrainerBattle_Ch3_sub_1
	sound_call Music_SinnohTrainerBattle_Ch3_sub_1
	note C#, 2
	sound_call Music_SinnohTrainerBattle_Ch3_sub_4
	octave 2
	sound_call Music_SinnohTrainerBattle_Ch3_sub_2
	octave 2
	sound_call Music_SinnohTrainerBattle_Ch3_sub_2
	note C#, 2
	sound_call Music_SinnohTrainerBattle_Ch3_sub_4
	sound_call Music_SinnohTrainerBattle_Ch3_sub_1
	sound_call Music_SinnohTrainerBattle_Ch3_sub_1
	note C#, 2
	sound_call Music_SinnohTrainerBattle_Ch3_sub_4
	note D#, 2
	sound_call Music_SinnohTrainerBattle_Ch3_sub_6
	sound_call Music_SinnohTrainerBattle_Ch3_sub_5
	octave 3
	sound_call Music_SinnohTrainerBattle_Ch3_sub_5
	sound_call Music_SinnohTrainerBattle_Ch3_sub_3
	note F_, 2
	note F_, 2
	octave 3
	note A#, 2
	octave 4
	note F_, 2
	sound_call Music_SinnohTrainerBattle_Ch3_sub_3
	note F#, 2
	note F_, 2
	note D#, 2
	note F#, 2
	octave 3
	sound_call Music_SinnohTrainerBattle_Ch3_sub_0
	sound_call Music_SinnohTrainerBattle_Ch3_sub_7
	sound_call Music_SinnohTrainerBattle_Ch3_sub_0
	sound_call Music_SinnohTrainerBattle_Ch3_sub_7
	sound_call Music_SinnohTrainerBattle_Ch3_sub_0
	note F_, 2
	note F#, 2
	note G_, 2
	note A#, 2
	note F_, 2
	note C#, 2
	octave 2
	note A#, 2
	sound_loop 0, .loop